<svg width="1073" height="717" viewBox="0 0 1073 717" fill="none" xmlns="http://www.w3.org/2000/svg">
<path opacity="0.25" d="M1071 14L103.999 669.001" stroke="white"/>
<path opacity="0.25" d="M1071.5 14.5L662 670" stroke="white"/>
<path opacity="0.25" d="M1071 14.5L923 670" stroke="white"/>
<path opacity="0.25" d="M1071 14.5L370 671" stroke="white"/>
<path d="M1001.5 349C1009.51 349 1016 342.508 1016 334.5C1016 326.492 1009.51 320 1001.5 320C993.492 320 987 326.492 987 334.5C987 342.508 993.492 349 1001.5 349Z" fill="#4000C7"/>
<path d="M272.5 599C298.734 599 320 577.734 320 551.5C320 525.266 298.734 504 272.5 504C246.266 504 225 525.266 225 551.5C225 577.734 246.266 599 272.5 599Z" fill="#4000C7"/>
<path opacity="0.17" d="M263 535C269.627 535 275 529.627 275 523C275 516.373 269.627 511 263 511C256.373 511 251 516.373 251 523C251 529.627 256.373 535 263 535Z" fill="black"/>
<path opacity="0.17" d="M282 517C285.866 517 289 513.866 289 510C289 506.134 285.866 503 282 503C278.134 503 275 506.134 275 510C275 513.866 278.134 517 282 517Z" fill="black"/>
<path opacity="0.17" d="M303 589C306.866 589 310 585.866 310 582C310 578.134 306.866 575 303 575C299.134 575 296 578.134 296 582C296 585.866 299.134 589 303 589Z" fill="black"/>
<path d="M859 166C863.971 166 868 161.971 868 157C868 152.029 863.971 148 859 148C854.029 148 850 152.029 850 157C850 161.971 854.029 166 859 166Z" fill="#064698"/>
</svg>
