<svg width="1440" height="881" viewBox="0 0 1440 881" fill="none" xmlns="http://www.w3.org/2000/svg">
<path d="M1565 642C1565 773.996 1458 881 1326 881C1194 881 1087 773.996 1087 642C1087 510.004 1194 403 1326 403C1458 403 1565 510.004 1565 642Z" fill="black" fill-opacity="0.04"/>
<path d="M1498 642C1498 736.993 1420.99 814 1326 814C1231.01 814 1154 736.993 1154 642C1154 547.007 1231.01 470 1326 470C1420.99 470 1498 547.007 1498 642Z" fill="#F2F4F6"/>
<g clip-path="url(#clip0_1358_3)">
<path d="M1034.94 75.0351C1037.96 66.7315 1047.15 62.45 1055.45 65.4723L1380.98 183.957C1389.29 186.979 1393.57 196.161 1390.55 204.464L1266.93 544.094C1263.91 552.397 1254.73 556.679 1246.42 553.657L920.89 435.172C912.586 432.15 908.305 422.968 911.327 414.664L1034.94 75.0351Z" fill="#855DDC"/>
<path opacity="0.3" d="M1357.06 552.502C1304.65 696.519 1145.41 770.774 1001.39 718.356C857.373 665.939 783.118 506.698 835.535 362.681C887.953 218.665 1047.19 144.409 1191.21 196.827C1335.23 249.245 1409.48 408.486 1357.06 552.502Z" fill="black" fill-opacity="0.8"/>
<path opacity="0.3" fill-rule="evenodd" clip-rule="evenodd" d="M1001.73 717.417C1145.23 769.646 1303.9 695.658 1356.12 552.16C1408.35 408.663 1334.37 249.996 1190.87 197.767C1047.37 145.538 888.704 219.526 836.475 363.023C784.246 506.521 858.234 665.188 1001.73 717.417ZM1001.39 718.356C1145.41 770.774 1304.65 696.519 1357.06 552.502C1409.48 408.486 1335.23 249.245 1191.21 196.827C1047.19 144.409 887.953 218.665 835.535 362.681C783.118 506.698 857.373 665.939 1001.39 718.356Z" fill="black" fill-opacity="0.12"/>
<path d="M1321.82 603.824C1273.34 737.037 1126.04 805.722 992.828 757.237C859.615 708.751 790.93 561.456 839.415 428.243C887.901 295.03 1035.2 226.345 1168.41 274.831C1301.62 323.316 1370.31 470.612 1321.82 603.824Z" fill="#855DDC"/>
<path fill-rule="evenodd" clip-rule="evenodd" d="M993.17 756.297C1125.86 804.593 1272.59 736.176 1320.88 603.482C1369.18 470.789 1300.76 324.067 1168.07 275.77C1035.37 227.474 888.652 295.891 840.355 428.585C792.058 561.279 860.476 708 993.17 756.297ZM992.828 757.237C1126.04 805.722 1273.34 737.037 1321.82 603.824C1370.31 470.612 1301.62 323.316 1168.41 274.831C1035.2 226.345 887.901 295.03 839.415 428.243C790.93 561.456 859.615 708.751 992.828 757.237Z" fill="black" fill-opacity="0.12"/>
<path opacity="0.3" d="M1264.61 596.005C1225.89 702.395 1108.25 757.25 1001.86 718.528C895.469 679.805 840.614 562.167 879.337 455.776C918.06 349.386 1035.7 294.531 1142.09 333.254C1248.48 371.976 1303.33 489.614 1264.61 596.005Z" fill="black"/>
<path opacity="0.3" fill-rule="evenodd" clip-rule="evenodd" d="M1002.2 717.588C1108.07 756.122 1225.14 701.534 1263.67 595.663C1302.2 489.791 1247.62 372.727 1141.75 334.193C1035.87 295.659 918.81 350.247 880.276 456.118C841.742 561.99 896.33 679.054 1002.2 717.588ZM1001.86 718.528C1108.25 757.25 1225.89 702.395 1264.61 596.005C1303.33 489.614 1248.48 371.976 1142.09 333.254C1035.7 294.531 918.06 349.386 879.337 455.776C840.614 562.167 895.469 679.805 1001.86 718.528Z" fill="black" fill-opacity="0.12"/>
<path d="M1212.74 624.482C1181.29 710.892 1085.75 755.445 999.337 723.995C912.927 692.544 868.374 596.999 899.825 510.59C931.275 424.18 1026.82 379.626 1113.23 411.077C1199.64 442.528 1244.19 538.072 1212.74 624.482Z" fill="#855DDC"/>
<path fill-rule="evenodd" clip-rule="evenodd" d="M999.679 723.055C1085.57 754.317 1180.54 710.031 1211.8 624.14C1243.06 538.249 1198.78 443.278 1112.89 412.017C1027 380.755 932.026 425.041 900.764 510.932C869.503 596.822 913.788 691.793 999.679 723.055ZM999.337 723.995C1085.75 755.445 1181.29 710.892 1212.74 624.482C1244.19 538.072 1199.64 442.528 1113.23 411.077C1026.82 379.626 931.275 424.18 899.825 510.59C868.374 596.999 912.927 692.544 999.337 723.995Z" fill="black" fill-opacity="0.12"/>
<path d="M1047.07 84.7571L1033.69 119.611C1032.64 122.349 1033.99 125.44 1036.76 126.501L1071.61 139.88C1074.35 140.931 1077.45 139.551 1078.5 136.812L1091.88 101.959C1092.93 99.2202 1091.55 96.1195 1088.81 95.0683L1053.96 81.6892C1051.2 80.6285 1048.12 82.0185 1047.07 84.7571ZM1073.12 106.183C1071.53 110.316 1066.92 112.371 1062.78 110.785C1058.65 109.198 1056.6 104.582 1058.18 100.449C1059.77 96.3165 1064.39 94.2611 1068.52 95.8474C1072.65 97.4338 1074.71 102.05 1073.12 106.183ZM1043.07 117.499C1044.98 112.519 1055.99 113.604 1060.97 115.515C1065.95 117.426 1074.85 123.987 1072.94 128.966L1071.99 131.456L1042.11 119.988L1043.07 117.499Z" fill="white"/>
<path d="M1075 104C1075 108.971 1070.97 113 1066 113C1061.03 113 1057 108.971 1057 104C1057 99.0294 1061.03 95 1066 95C1070.97 95 1075 99.0294 1075 104Z" fill="#F4DE18"/>
</g>
<path d="M278 363C278 494.996 170.996 602 39 602C-92.9961 602 -200 494.996 -200 363C-200 231.004 -92.9961 124 39 124C170.996 124 278 231.004 278 363Z" fill="black" fill-opacity="0.04"/>
<path d="M211 363C211 457.993 133.993 535 39 535C-55.993 535 -133 457.993 -133 363C-133 268.007 -55.993 191 39 191C133.993 191 211 268.007 211 363Z" fill="#F2F4F6"/>
<path d="M102 156C102 147.163 109.163 140 118 140H278C286.837 140 294 147.163 294 156V274C294 282.837 286.837 290 278 290H118C109.163 290 102 282.837 102 274V156Z" fill="#FBEF85"/>
<path d="M102 156C102 147.163 109.163 140 118 140H278C286.837 140 294 147.163 294 156V274C294 282.837 286.837 290 278 290H118C109.163 290 102 282.837 102 274V156Z" fill="url(#paint0_linear_1358_3)" fill-opacity="0.2"/>
<path d="M1340 461.5C1340 469.508 1333.51 476 1325.5 476C1317.49 476 1311 469.508 1311 461.5C1311 453.492 1317.49 447 1325.5 447C1333.51 447 1340 453.492 1340 461.5Z" fill="#5D419A"/>
<path d="M125 262.779V310.228C125 313.956 128.016 317.007 131.779 317.007H179.228C182.956 317.007 186.007 313.956 186.007 310.228V262.779C186.007 259.05 182.956 256 179.228 256H131.779C128.016 256 125 259.05 125 262.779ZM165.671 276.336C165.671 281.962 161.13 286.503 155.503 286.503C149.877 286.503 145.336 281.962 145.336 276.336C145.336 270.709 149.877 266.168 155.503 266.168C161.13 266.168 165.671 270.709 165.671 276.336ZM135.168 303.45C135.168 296.671 148.725 292.943 155.503 292.943C162.282 292.943 175.839 296.671 175.839 303.45V306.839H135.168V303.45Z" fill="#0A1849"/>
<path d="M168 276.075C168 282.703 162.627 288.075 156 288.075C149.373 288.075 144 282.703 144 276.075C144 269.448 149.373 264.075 156 264.075C162.627 264.075 168 269.448 168 276.075Z" fill="#F18585"/>
<path opacity="0.5" d="M302 395C302 399.418 298.418 403 294 403C289.582 403 286 399.418 286 395C286 390.582 289.582 387 294 387C298.418 387 302 390.582 302 395Z" fill="#0070C5"/>
<path opacity="0.5" d="M198 98C198 101.314 195.314 104 192 104C188.686 104 186 101.314 186 98C186 94.6863 188.686 92 192 92C195.314 92 198 94.6863 198 98Z" fill="#0070C5"/>
<defs>
<linearGradient id="paint0_linear_1358_3" x1="118" y1="140" x2="192.5" y2="247" gradientUnits="userSpaceOnUse">
<stop stop-color="#F2F4F6"/>
<stop offset="1" stop-color="#F2AA1E"/>
</linearGradient>
<clipPath id="clip0_1358_3">
<rect x="1040.41" y="60" width="378" height="393" rx="16" transform="rotate(20 1040.41 60)" fill="white"/>
</clipPath>
</defs>
</svg>
