<svg width="120" height="15" viewBox="0 0 120 15" fill="none" xmlns="http://www.w3.org/2000/svg">
<!-- <mask id="mask0_818_468" style="mask-type:luminance" maskUnits="userSpaceOnUse" x="0" y="0" width="120" height="15"> -->
<path d="M0.831543 14.8472H119.565V0.275518H0.831543V14.8472Z" />
<!-- </mask> -->
<g mask="url(#mask0_818_468)">
<path d="M0.831543 14.8472V0.284928H1.80177L10.9286 9.41138V0.284928H13.8412V14.8472H12.7735L3.744 5.8186V14.8472H0.831543Z" />
<path d="M32.2931 14.8472V0.293951L21.594 0.284928V3.00355H29.3805V6.11H24.9443V8.8189H29.3805V12.1293H21.6133V14.8472H32.2931Z" />
<path d="M72.3418 0.284928V3.00355H67.4879V14.8472H64.5753V3.00355H59.7214V0.284928H72.3418Z" />
<path d="M80.5843 12.7558C79.1903 11.3677 78.4929 9.62859 78.4929 7.53759C78.4996 5.49209 79.1983 3.77254 80.5899 2.37729C81.9811 0.982221 83.7067 0.284928 85.7652 0.284928C87.8419 0.284928 89.6262 0.931929 91.1143 2.22743L89.1726 4.35316C88.1815 3.57582 87.047 3.18769 85.7652 3.18769C84.4565 3.19398 83.4042 3.60177 82.604 4.41136C81.8042 5.21997 81.4048 6.25576 81.4048 7.51696C81.4121 8.87052 81.8164 9.94471 82.6183 10.7415C83.4217 11.5372 84.4771 11.9352 85.783 11.9352C86.8329 11.9352 87.6391 11.7283 88.2018 11.3137V8.8189L86.2594 8.82845V6.11H91.1143V12.9061C89.6322 14.2012 87.8482 14.8472 85.7652 14.8472C83.7067 14.8418 81.9797 14.1437 80.5843 12.7558Z" />
<path d="M98.8174 14.8472H101.721V0.275518H98.8174V14.8472Z" />
<path d="M117.299 0.770039C118.044 1.09382 118.739 1.57907 119.386 2.22743L117.445 4.16844C116.797 3.39085 115.892 3.00355 114.726 3.00355C113.561 3.00355 112.816 3.27785 112.492 3.82801C112.169 4.37841 112.169 4.84852 112.492 5.23567C112.816 5.62488 113.561 5.91628 114.726 6.11C115.955 6.23978 117.073 6.644 118.076 7.32352C119.078 8.00305 119.581 9.08774 119.581 10.5753C119.581 11.7413 119.044 12.7441 117.973 13.5856C116.902 14.4274 115.655 14.8472 114.23 14.8472C112.878 14.8472 111.748 14.6538 110.844 14.2658C109.936 13.8773 109.16 13.3596 108.512 12.7113L110.454 10.7701C111.101 11.5477 112.201 11.9998 113.756 12.1293C115.051 12.1293 115.858 11.8546 116.177 11.3041C116.498 10.7539 116.498 10.2038 116.177 9.65294C115.858 9.104 115.051 8.76385 113.756 8.63421C112.59 8.50442 111.522 8.1491 110.552 7.56641C109.58 6.98404 109.095 5.98049 109.095 4.55684C109.095 3.26844 109.647 2.23495 110.75 1.45488C111.854 0.674423 112.989 0.284928 114.153 0.284928C115.506 0.284928 116.555 0.446679 117.299 0.770039Z" />
<path d="M49.2006 5.93594L53.3274 0.284937H49.9095L47.4834 3.59209L49.2006 5.93594Z" />
<path d="M48.2312 7.26068L43.1139 0.284928H39.6957L44.7926 7.26533L39.2295 14.8472H42.6862L48.2312 7.26068Z" />
<path d="M49.2003 8.58776L47.4807 10.9401L50.3373 14.8472H53.7933L49.2003 8.58776Z" />
</g>
</svg>
