<?xml version="1.0" encoding="utf-8"?>
<!-- Generator: Adobe Illustrator 19.1.1, SVG Export Plug-In . SVG Version: 6.00 Build 0)  -->
<svg version="1.1" id="Слой_1" xmlns="http://www.w3.org/2000/svg" xmlns:xlink="http://www.w3.org/1999/xlink" x="0px" y="0px"
	 width="111.7px" height="818.8px" viewBox="754.5 -401 111.7 818.8" style="enable-background:new 754.5 -401 111.7 818.8;"
	 xml:space="preserve">
<style type="text/css">
	.st0{fill:#231F20;}
	.st1{fill:#176FC1;}
</style>
<path id="path22" class="st0" d="M866,417.8H754.6v-7.4l69.8-69.9h-69.8v-22.3H866v8.2L797,395.5H866V417.8"/>
<path id="path24" class="st0" d="M866,191.9H754.6l-0.1,81.9h20.8v-59.6h23.8v34h20.7v-34h25.3v59.5H866L866,191.9"/>
<path id="path26" class="st0" d="M754.6-84.5h20.8v37.1H866v22.3h-90.6V12h-20.8V-84.5"/>
<path id="path28" class="st1" d="M850-132.7c-10.6,10.7-23.9,16-39.9,16c-15.7-0.1-28.8-5.4-39.5-16c-10.7-10.6-16-23.9-16-39.6
	c0-15.9,5-29.5,14.9-40.9l16.3,14.9c-5.9,7.6-8.9,16.3-8.9,26.1c0,10,3.2,18.1,9.4,24.2c6.2,6.1,14.1,9.2,23.8,9.2
	c10.4-0.1,18.6-3.2,24.7-9.3c6.1-6.1,9.1-14.2,9.1-24.2c0-8-1.6-14.2-4.8-18.5H820l0.1,14.9h-20.8v-37.4h52
	c9.9,11.3,14.9,25,14.9,40.9C866-156.5,860.6-143.3,850-132.7"/>
<path id="path30" class="st1" d="M866-257.2v-22.2H754.5v22.2H866z"/>
<path id="path32" class="st1" d="M758.3-383.7c2.5-5.7,6.2-11,11.2-16l14.9,14.9c-6,5-8.9,11.9-8.9,20.8c0,8.9,2.1,14.6,6.3,17.1
	s7.8,2.5,10.8,0s5.2-8.2,6.7-17.1c1-9.4,4.1-18,9.3-25.6c5.2-7.7,13.5-11.5,24.9-11.5c8.9,0,16.6,4.1,23,12.3s9.7,17.7,9.7,28.6
	c0,10.3-1.5,19-4.4,25.9c-3,6.9-6.9,12.9-11.9,17.8l-15.1-14.8c6-5,9.4-13.4,10.4-25.3c0-9.9-2.1-16.1-6.3-18.5
	c-4.2-2.5-8.4-2.5-12.6,0c-4.2,2.4-6.8,8.6-7.8,18.5c-1,8.9-3.7,17.1-8.2,24.5s-12.1,11.2-23,11.2c-9.9,0-17.8-4.2-23.7-12.7
	c-6-8.4-9-17.1-9-26C754.6-369.8,755.8-378,758.3-383.7"/>
<path id="path34" class="st0" d="M797.8,77.5l-43.2-31.6v26.2L780,90.8L797.8,77.5"/>
<path id="path36" class="st1" d="M808,85l-53.4,39.2v26.2l53.4-39l58,42.6v-26.5L808,85"/>
<path id="path38" class="st0" d="M818.1,77.5l18,13.2L866,68.9V42.5L818.1,77.5"/>
</svg>
