<?xml version="1.0" encoding="utf-8"?>
<!-- Generator: Adobe Illustrator 19.1.1, SVG Export Plug-In . SVG Version: 6.00 Build 0)  -->
<svg version="1.1" id="Слой_1" xmlns:inkscape="http://www.inkscape.org/namespaces/inkscape"
	 xmlns="http://www.w3.org/2000/svg" xmlns:xlink="http://www.w3.org/1999/xlink" x="0px" y="0px" width="3295.8px" height="1504px"
	 viewBox="732.2 -1174.5 3295.8 1504" style="enable-background:new 732.2 -1174.5 3295.8 1504;" xml:space="preserve">
<style type="text/css">
	.st0{fill:none;stroke:#e6edf2;stroke-width:2;stroke-linejoin:round;stroke-opacity:0.7;}
</style>
<g id="MapBackground" inkscape:label="MapBackground" inkscape:groupmode="layer">
	<g id="map_background_1_" inkscape:label="map background" inkscape:groupmode="layer">
		<path id="map_background" d="M732.2-1174.5L732.2-1174.5L732.2-1174.5z"/>
	</g>
</g>
<g id="Infrastructure" inkscape:label="Infrastructure" inkscape:groupmode="layer">
	<g id="contours_minor__x28_contours_x29_" inkscape:label="contours minor (contours)" inkscape:groupmode="layer">
		<path class="st0" d="M3767.8,232.6l22.6,32.1v32.1l4.5,32.1"/>
		<path class="st0" d="M3279.9,232.6l-9,32.1l-2.3,9.3l-22.6,22.8v32.1"/>
		<path class="st0" d="M3237,232.6l-11.3,25.3h-22.6l-22.6,2.3l-20.3,4.5l2.3,32.1l18.1,16l15.8,16"/>
		<path class="st0" d="M3108.3,232.6l-6.8,32.1l9,32.1l6.8,6.8l20.3,22.8l4.5,2.3"/>
		<path class="st0" d="M3078.9,232.6l-6.8,11.5l-9,20.6l9,32.1v9.3l11.3,22.8"/>
		<path class="st0" d="M3017.9,232.6l-9,20.6l-11.3,11.5l-11.3,9.3l-22.6-2.3l-20.3,6.8l-4.5,18.3v32.1"/>
		<path class="st0" d="M2920.8,232.6l-6.8,32.1l6.8,32.1v32.1"/>
		<path class="st0" d="M2891.4,232.6l-4.5,32.1l4.5,32.1l-13.6,25.3l-22.6-2.3l-13.6,9.3"/>
		<path class="st0" d="M2862.1,232.6l-2.3,32.1l-4.5,9.3l-15.8,22.8l-4.5,4.5l-22.6,11.5l-15.8,16"/>
		<path class="st0" d="M2814.6,232.6l-2.3,6.8l-11.3,25.3l-11.3,11.5l-18.1,20.6l-2.3,4.5l-22.6,27.6l0,0"/>
		<path class="st0" d="M2315.5,328.8l-24.8-2.3h-20.3h-22.6l-11.3,2.3"/>
		<path class="st0" d="M2796.6,232.6l-6.8,9.3l-9,22.8l-11.3,16l-20.3,16l-22.6,22.8l-22.6,6.8l-13.6,2.3"/>
		<path class="st0" d="M2351.6,328.8l-15.8-6.8l-22.6-11.5l-22.6-2.3l-20.3,2.3l-22.6-6.8l-13.6-6.8l-6.8-2.3l-22.6-2.3l-9,4.5
			l9,13.8l6.8,18.3"/>
		<path class="st0" d="M2496.2,328.8l-9-4.5l-22.6,4.5l0,0"/>
		<path class="st0" d="M2780.8,232.6l-11.3,25.3l-4.5,6.8l-18.1,18.3l-15.8,13.8l-4.5,6.8L2704,308l-22.6-9.3l-20.3,29.8l0,0"/>
		<path class="st0" d="M2374.2,328.8l-18.1-20.6l-20.3-4.5l-11.3-6.8l-11.3-6.8h-22.6l-20.3,4.5l-22.6-6.8l-20.3-9.3l-22.6-6.8
			l-22.6,11.5l-18.1,13.8l18.1,18.3l9,13.8"/>
		<path class="st0" d="M2765,232.6l-15.8,32.1l-22.6,20.6H2704l-22.6-18.3h-20.3l-20.3,29.8l-2.3,4.5l-20.3,16l-22.6,9.3l-22.6,2.3
			l-20.3-16l-22.6-2.3l-22.6-2.3l-20.3-4.5l-22.6-6.8L2451,329"/>
		<path class="st0" d="M2161.9,232.6l-22.6,11.5l-22.6,13.8l-4.5,6.8l4.5,27.6l2.3,4.5l20.3,29.8l2.3,2.3"/>
		<path class="st0" d="M2595.6,232.6l-22.6,6.8l-20.3,6.8l-22.6,18.3l-22.6-2.3l-20.3-2.3l-22.6-9.3l-20.3-2.3l-20.3,16v32.1
			l-2.3,9.3l-22.6-2.3l-2.3-6.8l-18.1-13.8l-22.6-9.3l-20.3-4.5l-9-4.5l-13.6-6.8l-22.6,4.5l-13.6,2.3l-6.8,2.3l-13.6-2.3h-9
			l-20.3-11.5l-22.6-11.5l-13.6-9.3"/>
		<path class="st0" d="M2100.9,232.6l-4.5,9.3l-6.8,22.8l6.8,20.6l4.5,11.5l11.3,32.1"/>
		<path class="st0" d="M2430.7,232.6l-9,4.5l-18.1,27.6l-4.5,4.5l-20.3-4.5l-22.6-4.5l-20.3-4.5l-22.6-11.5l-22.6,2.3l-20.3,9.3
			l-22.6-2.3l-20.3-11.5l-15.8-9.3"/>
		<path class="st0" d="M2507.5,232.6l-20.3,2.3l-4.5-2.3"/>
		<path class="st0" d="M2060.3,232.6l6.8,32.1l6.8,20.6l4.5,11.5l9,32.1"/>
		<path class="st0" d="M2290.7,232.6l-20.3,11.5l-22.6-2.3l-15.8-9.3"/>
		<path class="st0" d="M2394.5,232.6l-15.8,11.5h-22.6l-20.3-4.5l-18.1-6.8"/>
		<path class="st0" d="M2030.9,232.6l18.1,32.1l4.5,25.3v6.8l4.5,32.1"/>
		<path class="st0" d="M1985.7,232.6l2.3,4.5l13.6,27.6l6.8,18.3l6.8,13.8l4.5,32.1"/>
		<path class="st0" d="M1967.7,232.6l9,32.1l11.3,32.1l11.3,32.1"/>
		<path class="st0" d="M1947.3,232.6l6.8,32.1l6.8,32.1l4.5,13.8l9,18.3"/>
		<path class="st0" d="M1920.2,232.6l2.3,4.5l9,27.6l-2.3,32.1l13.6,32.1"/>
		<path class="st0" d="M1863.8,232.6l15.8,32.1l4.5,32.1l2.3,32.1"/>
		<path class="st0" d="M1832.2,232.6l2.3,32.1l11.3,32.1l11.3,27.6l2.3,4.5"/>
		<path class="st0" d="M1814.1,232.6v9.3l-2.3,22.8l2.3,32.1l-4.5,32.1"/>
		<path class="st0" d="M1789.2,232.6v32.1l-11.3,32.1l-6.8,32.1l0,0"/>
		<path class="st0" d="M1436.9,328.8l-13.6-11.5l-22.6-9.3l-20.3,2.3l-18.1,18.3"/>
		<path class="st0" d="M1748.6,232.6l-9,32.1l-9,32.1l6.8,32.1"/>
		<path class="st0" d="M1461.8,328.8l-18.1-13.8l-20.3-18.3l-22.6-2.3l-20.3,2.3l-22.6,13.8l-13.6,18.3"/>
		<path class="st0" d="M1735,232.6l-9,22.8l-4.5,9.3l-6.8,32.1l4.5,32.1"/>
		<path class="st0" d="M1601.8,328.8l-4.5-2.3l-22.6-4.5l-20.3,2.3l-22.6,4.5h-22.6l-20.3-4.5l-22.6-11.5l-20.3-16l-22.6-16
			l-22.6-2.3l-20.3,4.5l-22.6,6.8l-22.6,4.5l-9,2.3l-2.3,32.1"/>
		<path class="st0" d="M1717,232.6l-11.3,22.8l-4.5,9.3l-2.3,32.1l-6.8,32.1"/>
		<path class="st0" d="M1635.7,328.8l-18.1-6.8l-20.3-11.5l-22.6-2.3h-20.3l-22.6,2.3h-22.6l-20.3-6.8l-13.6-6.8l-9-4.5l-22.6-18.3
			l-18.1-9.3h-24.8l-20.3,6.8l-22.6,4.5l-22.6-2.3l-18.1-9.3l-24.8-4.5l-6.8,4.5l6.8,32.1l11.3,32.1"/>
		<path class="st0" d="M1692.1,232.6l-9,22.8l-2.3,9.3l-4.5,32.1l-13.6,27.6l-13.6,4.5"/>
		<path class="st0" d="M1265.3,232.6l-15.8,25.3l-4.5,6.8l-9,32.1l-9,32.1l0,0"/>
		<path class="st0" d="M1448.2,232.6l-4.5,2.3l-20.3,4.5l-22.6-2.3l-20.3,6.8l-22.6,2.3l-22.6-4.5l-13.6-9.3"/>
		<path class="st0" d="M1635.7,232.6l-18.1,13.8l-20.3,18.3l-22.6,4.5l-20.3,2.3h-22.6l-22.6-2.3l-6.8-4.5l-13.6-22.8l-11.3-9.3"/>
		<path class="st0" d="M1240.4,232.6l-11.3,32.1l-2.3,6.8l-9,25.3l-11.3,32.1"/>
		<path class="st0" d="M1581.5,232.6l-6.8,4.5l-20.3,9.3l-22.6-2.3l-18.1-11.5"/>
		<path class="st0" d="M1213.3,232.6l-2.3,32.1l-4.5,13.8l-9,18.3l-11.3,32.1"/>
		<path class="st0" d="M1190.7,232.6l-4.5,32.1l-13.6,32.1l-9,32.1"/>
		<path class="st0" d="M750.3,266.9l20.3-20.6l13.6-13.8"/>
		<path class="st0" d="M1136.5,232.6v32.1l-6.8,32.1l-11.3,20.6l-4.5,11.5"/>
		<path class="st0" d="M750.3,289.9l20.3-20.6l9-4.5l13.6-11.5l18.1-20.6"/>
		<path class="st0" d="M1098.1,232.6l6.8,32.1l-6.8,32.1l-9,32.1"/>
		<path class="st0" d="M750.3,312.7l18.1-16l24.8-16l22.6-13.8l20.3-18.3l22.6-9.3l22.6-2.3l20.3-2.3l4.5-2.3"/>
		<path class="st0" d="M1043.9,232.6l9,13.8l9,18.3v32.1l-4.5,32.1"/>
		<path class="st0" d="M763.9,328.8l6.8-4.5l22.6-13.8l20.3-13.8l22.6-16l22.6-9.3l18.1-6.8l24.8-2.3l22.6-6.8l20.3-2.3l22.6,4.5
			l22.6,6.8h20.3l22.6,32.1l-4.5,32.1"/>
		<path class="st0" d="M858.7,328.8l22.6-6.8l15.8,6.8"/>
		<path class="st0" d="M3094.7-1109L3094.7-1109"/>
		<path class="st0" d="M3713.6-1173.2l-11.3,16l-6.8,16l6.8,4.5l22.6,27.6l20.3,18.3l11.3,11.5l11.3,32.1l9,32.1l-9,13.8l-9,18.3
			l-13.6,32.1l-20.3,25.3l-22.6,2.3l-20.3-11.5l-11.3,16l11.3,22.8l6.8,9.3l-6.8,9.3l-22.6,2.3l-22.6-11.5l-20.3-32.1l20.3-20.6
			l22.6,9.3l13.6-20.6l-13.6-13.8l-13.6-18.3l-9-9.3l-20.3-16l-11.3-6.8l-11.3-4.5l-18.1-27.6l-24.8-11.5l-22.6-11.5l-20.3-9.3
			l-22.6,11.5h-22.6l-20.3-11.5l-22.6-9.3l-20.3-20.6v-32.1H3377l-22.6-11.5l-20.3-11.5l-15.8,22.8l15.8,20.6l11.3,11.5l9,13.8
			l11.3,16l-11.3,32.1l-20.3-16h-22.6h-20.3l-22.6,6.8l-22.6,9.3l-9-32.1l-11.3-6.8l-22.6,6.8l-22.6,32.1l22.6,16l11.3,16l11.3,16
			l20.3,16l22.6,6.8l22.6,4.5l9-11.5l11.3-9.3l22.6,9.3l11.3,32.1l2.3,32.1l6.8,16l11.3,16l11.3,4.5l18.1,27.6l4.5,2.3h20.3
			l22.6,6.8l20.3,16l6.8,6.8l13.6,32.1l2.3,9.3l13.6,22.8l6.8,32.1l2.3,32.1h20.3l9,32.1v32.1l13.6,32.1v32.1l13.6,32.1l9,32.1
			l20.3,32.1l22.6,32.1h20.3l11.3,32.1l11.3,16l11.3,16l-11.3,16l-11.3,16l-11.3,16l-4.5,16l4.5,32.1l9,32.1l13.6,32.1l22.6,32.1
			l20.3,32.1l-20.3,16l-6.8,16l6.8,16l6.8,16l-6.8,16l-11.3,16l11.3,29.8l6.8,32.1l13.6,22.8l6.8,9.3l15.8,22.8l11.3,9.3l-11.3,32.1
			l20.3,32.1l22.6,32.1l22.6,32.1l-22.6,32.1l0,0"/>
		<path class="st0" d="M3203.1-1173.2h22.6l0,0"/>
		<path class="st0" d="M3291.2-1173.2h20.3l0,0"/>
		<path class="st0" d="M3345.4-1015.3l9-32.1h22.6l11.3,32.1l-11.3,16h-22.6L3345.4-1015.3"/>
		<path class="st0" d="M3377-1047.1l22.6-16l20.3,16l-20.3,16L3377-1047.1"/>
		<path class="st0" d="M3508-1141.1h20.3H3508L3508-1141.1"/>
		<path class="st0" d="M3659.4-214l22.6-22.8l6.8,22.8l-6.8,32.1L3659.4-214"/>
		<path class="st0" d="M3675.2-1173.2l6.8,9.3l9-9.3"/>
		<path class="st0" d="M3745.2,104.5l22.6-16l11.3,16l-11.3,32.1L3745.2,104.5"/>
		<path class="st0" d="M4000.4-1141.1l6.8-16l20.3,16l-20.3,6.8L4000.4-1141.1"/>
		<path class="st0" d="M2545.9-1173.2l6.8,4.5l11.3,27.6l9,32.1l22.6,29.8l22.6-4.5l4.5,4.5l15.8,22.8h22.6l20.3,6.8l4.5,2.3
			l18.1,13.8l22.6-6.8l4.5-6.8l15.8-16l22.6-16h20.3l22.6-2.3l6.8,2.3l15.8,22.8l4.5,9.3l15.8,9.3l9-9.3l13.6-18.3l22.6-6.8
			l20.3,4.5l22.6,9.3l20.3,9.3l6.8,2.3l15.8,16l15.8,16l6.8,6.8l20.3,22.8l11.3,34.3l11.3,18.3l20.3,11.5l13.6,2.3l9,4.5l22.6,4.5
			l20.3,2.3l22.6,2.3h20.3h22.6l22.6,2.3l20.3,6.8l15.8,9.3l6.8,6.8l22.6,13.8l18.1,11.5l24.8,13.8l20.3,2.3l22.6,6.8l15.8,9.3
			l6.8,6.8l20.3,16l15.8,9.3l6.8,6.8l13.6,25.3l-4.5,32.1l-4.5,32.1l-4.5,20.6l-4.5,11.5v32.1l4.5,25.3v6.8l4.5,32.1v32.1l-4.5,6.8
			l-22.6,20.6l-13.6,4.5l-6.8,4.5l-18.1,27.6l4.5,32.1l-6.8,32.1l-2.3,4.5l-22.6,22.8l-4.5,4.5v32.1l4.5,11.5l13.6,20.6l9,16
			l11.3,16l11.3,11.5l11.3,20.6l9,9.3L3438-214l-18.1,13.8l-20.3,18.3l20.3,16l15.8,16l-4.5,32.1l-11.3,11.5l-20.3,6.8L3377-85.7
			l-22.6,18.3l-20.3,4.5l-6.8,9.3l-6.8,29.8l-9,22.8l-2.3,9.3l-6.8,32.1l9,11.5l11.3,20.6l2.3,32.1l-13.6,32.1l-20.3,16l-22.6,6.8
			l-9,9.3l9,32.1l11.3,32.1"/>
		<path class="st0" d="M2408.1-1173.2l13.6,6.8l22.6,13.8l9,11.5l11.3,6.8l22.6,6.8l20.3,4.5l22.6,4.5l6.8,9.3l-4.5,29.8l2.3,32.1
			l18.1,9.3l20.3,20.6l6.8,2.3l15.8,4.5l22.6,4.5l20.3,4.5h22.6l20.3,18.3l22.6-2.3l22.6,2.3l20.3,6.8l22.6-2.3l6.8-4.5l13.6-13.8
			l22.6,2.3l13.6,11.5l9,9.3l20.3-4.5l4.5-4.5l18.1-18.3l22.6-9.3l20.3,4.5l22.6,18.3l2.3,4.5l13.6,32.1l4.5,4.5l22.6,13.8l22.6,6.8
			l4.5,6.8l15.8,6.8l22.6,9.3l20.3,6.8l22.6,9.3l22.6,4.5l20.3,2.3l22.6-2.3h20.3l22.6,9.3l22.6,9.3l15.8,9.3l4.5,2.3l22.6,6.8
			l22.6,4.5l20.3,13.8l22.6,2.3h20.3l11.3,2.3l11.3,11.5l18.1,20.6l4.5,2.3l20.3,13.8l18.1,16l-6.8,32.1l-4.5,32.1l-6.8,16l-4.5,16
			l-2.3,32.1l-2.3,32.1l-11.3,32.1l-22.6,27.6l-4.5,4.5l-18.1,11.5l-6.8,20.6l-2.3,32.1l-11.3,32.1l-22.6,27.6l-2.3,4.5l-9,32.1
			l9,32.1l2.3,32.1l-6.8,32.1l6.8,20.6l4.5,11.5l6.8,32.1l-11.3,4.5l-20.3,20.6l-4.5,6.8l4.5,16l9,16L3298-118l-6.8,32.1l-11.3,32.1
			l-4.5,29.8l-6.8,13.8l-15.8,18.3l-6.8,9.3l-20.3,22.8l11.3,32.1v32.1l-11.3,13.8l-20.3,18.3l-2.3,9.3l-9,22.8l9,6.8l22.6,25.3
			l11.3,32.1"/>
		<path class="st0" d="M2344.9-1173.2l11.3,20.6l22.6,6.8l11.3,4.5l9,9.3l22.6,22.8l22.6,13.8l4.5,16l15.8,32.1l15.8,32.1l6.8,2.3
			l20.3,4.5l22.6,4.5l22.6,2.3l20.3,11.5l18.1,6.8l4.5,2.3l22.6,2.3l20.3,9.3l22.6,9.3l20.3,6.8l22.6-2.3h22.6l20.3,2.3l6.8,2.3
			l15.8,4.5h20.3l22.6,6.8l22.6,6.8l20.3-2.3l22.6-6.8l22.6,6.8l20.3,11.5l6.8,4.5l15.8,6.8l20.3,11.5l22.6,2.3l22.6,2.3l20.3,6.8
			l6.8,2.3l15.8,4.5l20.3,9.3l22.6,6.8l22.6,2.3l20.3,6.8l13.6,2.3l9,2.3l20.3,2.3l22.6,13.8l22.6,9.3l20.3,4.5l22.6,2.3l22.6,6.8
			l20.3,6.8l22.6,2.3l20.3,9.3l4.5,4.5l18.1,22.8l22.6,9.3l9,32.1l-2.3,32.1l-6.8,20.6l-4.5,11.5l-6.8,32.1l-11.3,25.3l-4.5,6.8
			l-18.1,29.8l-20.3,22.8l-22.6,9.3v6.8l9,27.6l-9,20.6l-6.8,11.5l-13.6,11.5l-22.6,4.5l-6.8,16l6.8,13.8l4.5,18.3l2.3,32.1
			l11.3,32.1l-4.5,32.1l-13.6,9.3l-22.6,9.3l-20.3,11.5v6.8l18.1,27.6l2.3,6.8l13.6,25.3l-13.6,25.3v6.8l-2.3,32.1l2.3,32.1
			l-20.3,32.1L3228-54l-2.3,6.8l-22.6,20.6l-9,34.3l-4.5,32.1l4.5,32.1v32.1l-13.6,20.6l-4.5,11.5l-13.6,32.1l15.8,32.1l-18.1,16
			l-22.6,4.5l-20.3,4.5l-9,6.8"/>
		<path class="st0" d="M1116.2-1173.2l-18.1,29.8l-4.5,34.3l4.5,2.3l20.3-2.3l22.6-16l4.5-16l11.3-32.1"/>
		<path class="st0" d="M2116.7-1173.2l22.6,16l15.8-16"/>
		<path class="st0" d="M2209.3-1173.2l-4.5,9.3l-13.6,22.8l13.6,16l18.1,16h24.8l22.6,2.3l20.3,22.8l9,4.5l13.6,6.8l22.6,11.5
			l20.3,4.5l22.6,4.5l4.5,4.5l15.8,32.1l22.6,22.8l22.6,9.3h20.3l22.6,2.3l20.3,9.3h22.6l22.6-2.3l20.3,4.5l22.6,6.8l22.6,6.8
			l11.3,4.5l9,9.3l22.6,11.5l20.3-2.3l22.6,2.3h22.6l20.3-2.3l22.6,6.8l20.3,6.8l22.6,13.8l22.6,6.8l20.3-4.5l22.6-4.5l22.6,4.5
			l20.3,11.5l9,4.5l13.6,4.5l20.3,4.5l22.6,2.3h22.6l20.3,4.5l22.6,6.8l18.1,9.3l2.3,4.5l22.6,4.5h22.6l20.3,6.8l22.6,9.3l15.8,6.8
			l4.5,4.5l22.6,11.5l22.6,13.8l11.3,2.3l9,2.3h22.6h22.6l20.3,6.8l22.6,13.8l6.8,9.3l13.6,11.5l22.6,11.5l6.8,9.3l4.5,32.1l-9,32.1
			l-2.3,6.8l-15.8,25.3l-6.8,11.5l-13.6,20.6l-6.8,11.5l-22.6,18.3l-20.3,16l-11.3,18.3l-11.3,22.8l-22.6,6.8l-15.8,34.3v32.7
			l15.8,18.3l9,13.8l4.5,32.1l2.3,32.1l-15.8,16l-20.3,9.3l-22.6,2.3l-13.6,4.5l-9,32.1l22.6,27.6l2.3,4.5l18.1,32.1l-9,32.1
			l-4.5,32.1l-6.8,22.8v9.3v16l2.3,16l-18.1,32.1l-6.8,4.5l-15.8,25.3l-2.3,32.1l-2.3,6.8l-6.8,25.3l4.5,32.1l2.3,4.5l6.8,27.6
			l-6.8,16l-6.8,16l-13.6,32.1l-2.3,4.5l-20.3,11.5l-22.6,11.5l-4.5,4.5l-11.3,32.1"/>
		<path class="st0" d="M768.4-1173.2l24.8,22.8l22.6-9.3l4.5-13.8"/>
		<path class="st0" d="M1075.5-1173.2l-13.6,32.1l-9,22.8l-2.3,9.3l-15.8,29.8l-2.3,4.5l-22.6,25.3l-20.3,20.6l-15.8,13.8l-6.8,9.3
			L944.5-983v11.5l22.6,9.3l22.6-6.8l20.3-4.5l20.3-9.3l22.6-18.3l22.6-13.8l22.6-11.5l15.8-20.6l4.5-4.5l9,4.5l13.6,11.5l15.8,20.6
			l4.5,16l18.1,16l4.5,6.8l6.8-6.8l6.8-32.1l-6.8-32.1l-6.8-18.3l-4.5-13.8l-4.5-29.8l6.8-32.1l2.3-4.5l22.6-25.3l4.5-2.3"/>
		<path class="st0" d="M1556.6-1173.2l-2.3,6.8l-22.6,20.6l-6.8,4.5l-4.5,32.1l-11.3,25.3l-4.5,4.5l4.5,4.5l22.6,20.6l6.8,6.8
			l15.8,32.1l20.3-6.8l15.8-25.3l6.8-22.8v-9.3l20.3-22.8l13.6-6.8l9-6.8l22.6,2.3l20.3-11.5l9-16l13.6-18.3l18.1-13.8"/>
		<path class="st0" d="M1922.5-1173.2l22.6,2.3l20.3,6.8l15.8,22.8l-13.6,32.1l20.3,27.6l20.3-11.5l18.1-16l4.5-6.8l22.6-18.3
			l20.3,4.5l6.8,20.6l15.8,29.8l15.8,32.1l4.5,16l22.6,6.8l22.6-4.5l20.3,2.3l22.6,11.5l22.6,9.3l20.3,22.8l22.6,22.8l20.3,4.5
			l15.8,4.5l6.8,2.3l22.6,16l20.3,13.8l22.6,11.5h20.3l20.3-11.5l24.8-6.8l18.1,6.8l24.8,6.8l15.8-6.8l4.5-2.3l22.6-6.8l22.6-2.3
			l20.3,2.3l22.6,9.3l22.6,13.8l20.3,11.5h22.6l20.3-4.5l22.6,6.8l9,4.5l13.6,6.8l20.3,9.3l22.6,6.8l20.3,9.3l22.6,13.8l22.6,9.3
			l20.3-9.3l22.6-9.3l22.6,2.3l20.3,4.5l22.6,4.5l20.3-2.3h22.6l22.6,2.3l20.3,2.3l22.6,6.8l9,6.8l11.3,6.8l22.6,4.5h22.6l20.3,13.8
			l13.6,6.8l9,6.8l20.3,13.8l18.1,11.5l4.5,4.5l22.6,6.8l20.3,9.3l22.6-4.5l22.6,6.8l6.8,9.3l2.3,32.1l11.3,20.6l4.5,11.5l-4.5,2.3
			l-20.3,20.6l-22.6-2.3l-6.8,11.5l-15.8,20.6l-4.5,11.5l-9,32.1l-6.8,9.3l-22.6,16l-11.3,6.8l-11.3,27.6l-20.3,32.1l-4.5,4.5
			l4.5,4.5l20.3,27.6l18.1,32.1l-6.8,32.1l-11.3,4.5l-20.3,4.5h-22.6l-20.3,2.3l-22.6,2.3l-15.8,18.3l15.8,16l11.3,16l11.3,16l9,16
			l11.3,18.3l9,13.8l13.6,16l13.6,16l-6.8,32.1l-6.8,16l-13.6,16l-9,32.1l4.5,32.1l-4.5,6.8l-9,25.3l-11.3,29.8v6.8l-9,25.3
			l-13.6,16l-15.8,16l-6.8,11.5L3054.1,72l18.1,20.6l22.6,6.8l6.8,4.5l-6.8,9.3l-11.3,22.8l-11.3,9.3l-20.3,20.6l-4.5,2.3l-9,32.1
			l-9,16l-11.3,16"/>
		<path class="st0" d="M750.3-1170.9l20.3,18.3l11.3,11.5l11.3,16l22.6,13.8l13.6-29.8l6.8-20.6l15.8-11.5"/>
		<path class="st0" d="M1059.7-1173.2l-6.8,11.5l-6.8,20.6l-6.8,32.1l-6.8,11.5l-11.3,18.3l-11.3,13.8l-20.3,16l-4.5,2.3l-18.1,18.3
			l-11.3,13.8l-11.3,11.5L926.5-983l-2.3,9.3l-9,22.8l9,27.6l20.3-11.5l22.6-4.5l18.1-11.5l24.8-9.3l22.6-6.8l20.3-13.8l6.8-2.3
			l15.8-6.8l22.6-11.5l18.1-13.8h9l15.8,11.5l9,20.6l11.3,29.8l22.6,18.3l13.6-16l9-9.3l13.6-22.8l-2.3-32.1l-11.3-27.6l-2.3-4.5
			l-11.3-32.1l-6.8-29.8l11.3-32.1l9-11.5l20.3-18.3l6.8-2.3"/>
		<path class="st0" d="M1520.5-1173.2l-11.3,2.3l-13.6,29.8l-6.8,18.3l-22.6,4.5l-22.6,4.5l22.6,34.3l-2.3,32.1h24.8l20.3,18.3
			l6.8,13.8l6.8,32.1l9,32.1l22.6-4.5l20.3-11.5l22.6-6.8l18.1-9.3l2.3-9.3l2.3-22.8l-2.3-9.3l-4.5-22.8l4.5-22.8l6.8-9.3l15.8-6.8
			l11.3,6.8l11.3,9.3l20.3-6.8l22.6-27.6l11.3-4.5l9-22.8l11.3,22.8l11.3,6.8l22.6,6.8l20.3-6.8l11.3-6.8l11.3-9.3l20.3-11.5
			l22.6,4.5l22.6,2.3l20.3,2.3l13.6,11.5l9,29.8l22.6,4.5l13.6,27.6l6.8,16l22.6-4.5l6.8-11.5l13.6-16l11.3-16l11.3-9.3l22.6-9.3
			l4.5,18.3l13.6,32.1l2.3,4.5l11.3,27.6l4.5,32.1l6.8,16l20.3-9.3l9-6.8l13.6-9.3h22.6l9,9.3l11.3,11.5l22.6,2.3l22.6,18.3
			l20.3,22.8l22.6,9.3h11.3l9,2.3l22.6,6.8l22.6,9.3l20.3,11.5l4.5,2.3l18.1,11.5l20.3-2.3l9-9.3l13.6-6.8l22.6-4.5l20.3,2.3
			l22.6,4.5l20.3-9.3l22.6-6.8l22.6-2.3l20.3,2.3l22.6,9.3l18.1,11.5l4.5,2.3l20.3,9.3h22.6l20.3-6.8l22.6,9.3l22.6,16l4.5,2.3
			l15.8,13.8l22.6,9.3l18.1,9.3l24.8,6.8l22.6,11.5l20.3-6.8l22.6-9.3l6.8-2.3l15.8-2.3l20.3,2.3l22.6,2.3l11.3-2.3h9l22.6-2.3
			l9,2.3l13.6,2.3l20.3,2.3l22.6,6.8l20.3,11.5l22.6,4.5l22.6,4.5l20.3,18.3l22.6,13.8l20.3,9.3l22.6,16l15.8,6.8l6.8,20.6l2.3,11.5
			l4.5,32.1v32.1l-6.8,32.1l-22.6,32.1l-22.6,11.5l-20.3,16l-4.5,4.5l-18.1,20.6l-13.6,11.5l-2.3,32.1l9,32.1l6.8,18.3l6.8,13.8
			l-6.8,4.5l-20.3,9.3l-22.6,4.5l-22.6,9.3l-2.3,4.5l-18.1,32.1l20.3,22.8l9,9.3l13.6,11.5l11.3,20.6l11.3,18.3l6.8,13.8l13.6,22.8
			l9,9.3v32.1l-9,9.3l-15.8,22.8l-4.5,18.3l-2.3,13.8l-6.8,32.1l-4.5,32.1l-9,27.6L3076.6,9l-4.5,6.8L3056.3,41l-4.5,6.8l-22.6,18.3
			l-9,6.8l9,25.3l4.5,6.8l13.6,32.1l-18.1,9.3l-20.3,20.6l-6.8,34.3l-15.8,18.3l-22.6-2.3l-20.3,4.5l-22.6,11.5l0,0"/>
		<path class="st0" d="M750.3-1141.1l20.3,9.3l15.8,22.8l6.8,16l13.6,13.8l9,32.1l6.8-32.1l11.3-29.8l2.3-6.8l11.3-25.3l11.3-11.5
			l22.6-9.3l6.8-11.5"/>
		<path class="st0" d="M1043.9-1173.2l-11.3,25.3l-2.3,6.8l-4.5,32.1l-15.8,25.3l-4.5,4.5l-15.8,13.8l-22.6,18.3l-22.6,25.3
			l-6.8,6.8l-13.6,16l-15.8,16l-6.8,18.3l-6.8,13.8l-4.5,32.1l-4.5,32.1l15.8,13.8l15.8-13.8l6.8-6.8l20.3-20.6l13.6-4.5l9-2.3
			l22.6-9.3l20.3-11.5l20.3-9.3l22.6-9.3l22.6-6.8l22.6-4.5l11.3-11.5l9-6.8l9,6.8l13.6,13.8l6.8,18.3l13.6,32.1l22.6,13.8
			l11.3-13.8l11.3-13.8l18.1-18.3l2.3-4.5l15.8-27.6l-9-32.1l-6.8-13.8l-6.8-18.3l-13.6-32.1l-6.8-29.8l6.8-18.3l9-13.8l11.3-11.5
			l22.6-13.8l22.6,2.3l20.3-4.5l4.5-4.5"/>
		<path class="st0" d="M1461.8-1173.2l-18.1,18.3l-15.8,13.8l-4.5,9.3l-4.5,22.8l4.5,4.5l20.3,22.8v6.8l-20.3,22.8l-9,4.5l-2.3,32.1
			l11.3,22.8l20.3-6.8l22.6-11.5l20.3,27.6l-4.5,32.1l6.8,11.5l20.3,13.8l22.6-2.3l22.6-9.3l20.3-6.8l22.6-2.3h20.3l6.8-4.5
			l15.8-22.8l4.5-9.3l4.5-32.1l13.6-13.8l20.3-2.3l22.6-6.8l20.3-2.3l22.6,6.8h22.6l20.3-2.3l22.6-9.3l20.3,2.3l9-4.5l13.6-9.3
			l22.6-2.3l15.8,11.5l4.5,4.5l20.3,27.6l24.8,9.3l20.3,4.5h22.6l13.6-13.8l6.8-11.5l22.6,4.5l4.5,6.8l18.1,18.3l6.8,13.8l2.3,32.1
			l11.3,20.6l22.6,2.3l20.3-18.3l11.3-4.5l11.3-4.5l4.5,4.5l18.1,20.6l20.3,4.5l11.3,6.8l11.3,9.3l22.6,4.5l20.3,11.5l22.6,4.5
			l20.3-6.8l22.6,6.8l4.5,2.3l18.1,9.3l20.3,11.5l15.8,11.5l6.8,6.8l20.3,6.8l18.1-13.8l4.5-2.3l22.6-16l20.3-2.3l22.6,2.3l20.3-6.8
			l15.8-6.8l6.8-2.3l22.6-2.3l20.3,2.3l6.8,2.3l15.8,6.8l22.6,13.8l20.3,9.3h22.6l20.3-4.5l22.6,6.8l22.6,16l18.1,16l24.8,16
			l20.3,11.5l22.6,4.5l22.6,13.8l20.3-6.8l15.8-6.8l6.8-4.5l22.6-4.5l20.3-2.3l22.6-4.5l20.3-2.3l22.6-2.3l22.6,4.5l20.3,2.3
			l22.6,9.3l11.3,4.5l9,6.8l22.6,16l15.8,9.3l6.8,2.3l20.3,6.8l22.6,6.8l20.3,11.5l6.8,4.5l15.8,20.6l6.8,11.5v32.1l-2.3,32.1
			l-2.3,32.1l-24.8,13.8l-20.3,11.5l-22.6,4.5l-6.8,2.3l-13.6,6.8l-22.6,20.6l-2.3,4.5l-2.3,32.1l4.5,18.3l4.5,13.8l-4.5,16l-4.5,16
			l-9,32.1l-9,2.3l-20.3,22.8l-4.5,6.8l-18.1,22.8l-13.6,9.3l13.6,9.3l22.6,18.3l2.3,4.5l18.1,16l15.8,16l6.8,16l6.8,16l15.8,29.8
			l4.5,34.3l-4.5,4.5l-13.6,27.6l-6.8,32.1l-2.3,4.5l-13.6,27.6l-4.5,32.1l-4.5,9.3l-4.5,20.6l-15.8,32.1l-18.1,32.1l-4.5,4.5
			l-20.3,13.8l-15.8,13.8l11.3,32.1l-4.5,32.1l-13.6,20.6l-11.3,11.5l-11.3,9.3l-20.3,9.3l-22.6,4.5l-18.1,9.3l-2.3,4.5l-9,27.6"/>
		<path class="st0" d="M750.3-1116l20.3,6.8l11.3,29.8l4.5,32.1l6.8,16l13.6,16l9,9.3l18.1-9.3l2.3-32.1l9-32.1l4.5-29.8l9-18.3
			l22.6-11.5l4.5-2.3l15.8-22.8l13.6-9.3"/>
		<path class="st0" d="M1023.6-1173.2l-13.6,27.6v11.5l2.3,25.3l-22.6,29.8l-22.6,16l-18.1,16l-4.5,4.5l-20.3,22.8l-4.5,4.5
			l-18.1,20.6l-9,11.5l-11.3,25.3l-4.5,6.8l-4.5,32.1v32.1l-4.5,32.1l-6.8,32.1l-2.3,16v16l22.6-18.3l4.5-13.8l15.8-27.6l2.3-4.5
			l20.3-20.6l15.8-11.5l4.5-6.8l22.6-4.5l22.6-6.8l15.8-13.8l4.5-2.3l22.6-4.5l20.3-9.3l22.6-4.5h22.6l13.6-11.5l6.8-2.3l4.5,2.3
			l18.1,18.3l6.8,13.8l13.6,32.1l22.6,4.5l2.3-4.5l20.3-20.6l9-11.5l11.3-13.8l22.6-16l22.6-34.3l-18.1-32.1l-4.5-4.5l-11.3-27.6
			l-11.3-18.3l-4.5-13.8l-9-29.8l13.6-22.8l13.6-9.3l9-6.8l22.6,2.3h20.3l22.6-22.8l11.3-4.5"/>
		<path class="st0" d="M1425.6-1173.2l-24.8,22.8l-4.5,9.3l2.3,32.1l2.3,6.8l20.3,22.8l-20.3,11.5l-20.3,18.3l-4.5,2.3l4.5,6.8
			l11.3,25.3l-11.3,20.6l-9,11.5l9,18.3l18.1,13.8h13.6l11.3-2.3l20.3-2.3l2.3,4.5l20.3,25.3l4.5,6.8l18.1,13.8h20.3l22.6-2.3
			l18.1-11.5l24.8-11.5h22.6l20.3,6.8l22.6,2.3l13.6-29.8l9-16l20.3-6.8l22.6,6.8l20.3-6.8l9-9.3l13.6-9.3l22.6-2.3l20.3,4.5
			l22.6-2.3l20.3-6.8l22.6-13.8l22.6,6.8l20.3,22.8l22.6-4.5l22.6,2.3l11.3,2.3l9,2.3l22.6,11.5l20.3,2.3l22.6,9.3l4.5,6.8
			l18.1,20.6l6.8,11.5l13.6,27.6l22.6-9.3l20.3-13.8l22.6,4.5l22.6,18.3l6.8,4.5l13.6,6.8h22.6l22.6,2.3l20.3,11.5l22.6,9.3
			l20.3-6.8l22.6,2.3l22.6,4.5l4.5,2.3l15.8,9.3l22.6,22.8l20.3,11.5l22.6-11.5l22.6-25.3l13.6-6.8l6.8-2.3l22.6,2.3l20.3-4.5
			l22.6-9.3l22.6-4.5l20.3,2.3l22.6,9.3l11.3,6.8l11.3,6.8l20.3,6.8l22.6,2.3l20.3-4.5l22.6,6.8l18.1,13.8l4.5,4.5l20.3,16
			l15.8,11.5l6.8,6.8l20.3,11.5l22.6,9.3l9,4.5l13.6,6.8l15.8-6.8l4.5-2.3l22.6-13.8l22.6-6.8l20.3-4.5l20.3-4.5l22.6-4.5l22.6-2.3
			l22.6,2.3l18.1,4.5l24.8,13.8l20.3,16l4.5,2.3l18.1,13.8l22.6,4.5l20.3,9.3l22.6,4.5l20.3,22.8l9,9.3l2.3,32.1l-4.5,32.1
			l-6.8,11.5l-20.3,16l-22.6,2.3h-20.3l-9,2.3l-13.6,18.3l-2.3,13.8l-18.1,32.1l-2.3,4.5l-4.5,27.6l-2.3,32.1l-6.8,32.1l-6.8,11.5
			l-18.1,20.6l-4.5,6.8l-6.8,25.3l-13.6,11.5l-22.6,16l-4.5,4.5l4.5,9.3l22.6,18.3l4.5,4.5l15.8,13.8l22.6,9.3l11.3,9.3l9,13.8
			l9,18.3l6.8,32.1l4.5,32.1l-6.8,32.1l-4.5,32.1l-9,11.5l-9,20.6l-6.8,32.1l-4.5,11.5l-6.8,18.3l-13.6,32.1l-22.6,25.3l-9,6.8
			l-13.6,13.8l-18.1,18.3l11.3,32.1l-4.5,32.1l-11.3,13.8l-20.3,9.3l-22.6,2.3l-20.3,6.8l-22.6,13.8l-9,18.3l-6.8,32.1"/>
		<path class="st0" d="M750.3-1054.1l2.3,6.8v32.1l18.1,29.8l4.5,2.3l-4.5,11.5l-2.3,20.6l-18.1,32.1l20.3,18.3l22.6-4.5l22.6-9.3
			l20.3,2.3l9,25.3v32.1l-6.8,32.1l-2.3,4.5l-2.3,27.6l-6.8,32.1l-11.3,27.6l-2.3,4.5L800-694.6l-6.8,13.8l-6.8,18.3v32.1l6.8,2.3
			l4.5-2.3l18.1-18.3l4.5-13.8l15.8-18.3l9-13.8l13.6-16l13.6-16l9-18.3l2.3-13.8l11.3-32.1l6.8-18.3l6.8-13.8l15.8-20.6l9-11.5
			l11.3-9.3l22.6-2.3l22.6,4.5l20.3-6.8l22.6-11.5l18.1-6.8l24.8-6.8l22.6-2.3h20.3l13.6,9.3l9,13.8l6.8,18.3l6.8,32.1l6.8,32.1
			l22.6-27.6l18.1-36.6l4.5-4.5l15.8-27.6l4.5-4.5l22.6-16l22.6-6.8l11.3-4.5l9-9.3l22.6,4.5l9,4.5l11.3,2.3l22.6,4.5l22.6,11.5
			h20.3l22.6,6.8l6.8,6.8l13.6,18.3l22.6,2.3l22.6-2.3l20.3-4.5h22.6l22.6-9.3l2.3-4.5l18.1-9.3l22.6,2.3l6.8,6.8l13.6,32.1
			l22.6,25.3l15.8-25.3l6.8-11.5l11.3-20.6l9-13.8l22.6-11.5l20.3-2.3h22.6l22.6-2.3l20.3-2.3l22.6-11.5l20.3-6.8h22.6l22.6,4.5
			l20.3-2.3l22.6-6.8l22.6,2.3l20.3,13.8l11.3,6.8l11.3,16l18.1,16l24.8,27.6l4.5,4.5l18.1,11.5l20.3-2.3l20.3-9.3l22.6-6.8
			l18.1,6.8l4.5,4.5l22.6,27.6l20.3-2.3l22.6-6.8l22.6,6.8l13.6,2.3l6.8,2.3l22.6,2.3l20.3,4.5l22.6,13.8l22.6-16l20.3,9.3l15.8,16
			l6.8,4.5l20.3,9.3h22.6l22.6-9.3l4.5-4.5l15.8-16l22.6-9.3l18.1-6.8l24.8-9.3l22.6-4.5h20.3l22.6,6.8l11.3,6.8l11.3,9.3l20.3,9.3
			l22.6,4.5l20.3,2.3l13.6,6.8l9,4.5l22.6,16l13.6,11.5l6.8,6.8l22.6,18.3l15.8,6.8l4.5,2.3l22.6,6.8l22.6-2.3l15.8-6.8l4.5-2.3
			l22.6-11.5l22.6-9.3l20.3-6.8l22.6-6.8l20.3-4.5l22.6-2.3l22.6,4.5l18.1,6.8l18.1,32.1l6.8,6.8l20.3,11.5l22.6,2.3l22.6,2.3
			l15.8,9.3l4.5,18.3l4.5,13.8l-4.5,4.5l-20.3,6.8h-22.6l-22.6,11.5l-4.5,9.3l-2.3,32.1l-6.8,32.1l-6.8,11.5l-13.6,20.6l-6.8,32.1
			l-2.3,6.8l-6.8,25.3l-13.6,20.6l-13.6,11.5l-9,9.3l-22.6,9.3l-11.3,13.8l-9,20.6l-4.5,11.5l-13.6,32.1l18.1,32.1l20.3,20.6
			l22.6,9.3l22.6,29.8l2.3,4.5l18.1,16l11.3,16l6.8,32.1l2.3,32.1l-2.3,32.1l-13.6,32.1l-4.5,4.5l-11.3,27.6l-9,25.3l-4.5,4.5
			l-18.1,20.6l-13.6,11.5l-9,6.8l-20.3,16l-22.6,9.3l-9,32.1l-11.3,32.1l-22.6,6.8l-22.6,18.3l-11.3,6.8l-9,11.5l-6.8,20.6
			l-4.5,32.1l-9,32.1"/>
		<path class="st0" d="M870-1047.1l2.3-32.1l9-16l18.1-13.8l24.8-25.3l6.8-6.8l13.6-11.5l22.6,4.5l4.5,6.8l6.8,32.1l-11.3,9.3
			l-22.6,18.3l-20.3,20.6l-13.6,13.8l-9,11.5l-20.3,6.8L870-1047.1"/>
		<path class="st0" d="M1254-1079.2l18.1-27.6h20.3l6.8-2.3l15.8-11.5l20.3-16l22.6,13.8l4.5,13.8l-4.5,4.5l-22.6,22.8v34.3
			l13.6,32.1l-13.6,13.8l-20.3-4.5l-11.3-9.3l-11.3-6.8l-18.1-25.3l-2.3-4.5L1254-1079.2"/>
		<path class="st0" d="M750.3-619.1h20.3l22.6,4.5l22.6,2.3l6.8-18.3l13.6-29.8l22.6-32.1l22.6-22.8l6.8-11.5l6.8-32.1l6.8-25.3
			l2.3-6.8l15.8-32.1l4.5-4.5l20.3-22.8l22.6-2.3l22.6,4.5h20.3l11.3-6.8l11.3-6.8l20.3-9.3l22.6-4.5l22.6-2.3h20.3l18.1,22.8
			l4.5,29.8l9,34.3l11.3,32.1l22.6,11.5l22.6-4.5l2.3-6.8l-2.3-6.8l-13.6-25.3l9-32.1l4.5-6.8l11.3-25.3l9-16l18.1-16l4.5-2.3
			l22.6-9.3l20.3-4.5h22.6l20.3,4.5l22.6,6.8l11.3,4.5l11.3,4.5l20.3,2.3l22.6,20.6l4.5,4.5l15.8,6.8l22.6-2.3l15.8-4.5h6.8
			l20.3-2.3l22.6,2.3l22.6-9.3l20.3-11.5l22.6,16l2.3,4.5l15.8,32.1l2.3,11.5l22.6,4.5l11.3-16l11.3-13.8l11.3-18.3l9-16l22.6-13.8
			l20.3,2.3l22.6,11.5l22.6,2.3l20.3-6.8l22.6-6.8l13.6-4.5l6.8-6.8l22.6-2.3l22.6-2.3l20.3-2.3l15.8,13.8l6.8,4.5l22.6,16
			l13.6,11.5l6.8,6.8l22.6,2.3l20.3,2.3l22.6,9.3l22.6,11.5l20.3-4.5l22.6-6.8l20.3-2.3l13.6,13.8l9,16l18.1,16l4.5,2.3l20.3-9.3
			l22.6-6.8l22.6,2.3h20.3l22.6,2.3l18.1,9.3l24.8,18.3l22.6-18.3l20.3,6.8l22.6,16l20.3,4.5l22.6,4.5l22.6-6.8l20.3-16l13.6-9.3
			l9-4.5l20.3-9.3l22.6-6.8l22.6-4.5l20.3-2.3l22.6,11.5l22.6,13.8l9,2.3l11.3,4.5l22.6,9.3l20.3,2.3L2704-763l6.8,4.5l15.8,22.8
			l9,9.3l11.3,4.5l22.6,11.5l20.3,9.3h22.6l22.6-2.3l20.3-9.3l22.6-11.5l22.6-11.5l20.3-6.8l22.6-4.5l20.3-6.8l22.6-2.3l22.6,13.8
			l9,16l11.3,32.1l15.8,32.1l-4.5,32.1l9,32.1l-6.8,32.1l-13.6,20.6l-6.8,11.5l-9,32.1l-4.5,18.3l-9,13.8l-13.6,11.5l-22.6,9.3
			l-20.3,11.5l-18.1,32.1l-4.5,9.3l-9,22.8l-11.3,25.3l-6.8,6.8l6.8,32.1l20.3,9.3l18.1,22.8l4.5,4.5l20.3,11.5l20.3,16l2.3,4.5
			l22.6,27.6l18.1,32.1l2.3,32.1v16l2.3,16l-15.8,32.1l-6.8,13.8l-13.6,18.3l-9,11.5L2975-22.7l-11.3,11.5l-20.3,16l-9,4.5
			l-13.6,11.5l-20.3,16l-4.5,4.5l-13.6,32.1l-4.5,6.8l-22.6,18.3l-11.3,6.8l-9,6.8l-22.6,25.3l-2.3,32.1l-4.5,32.1l-9,32.1"/>
		<path class="st0" d="M750.3-882.5h20.3l9-4.5l13.6-4.5l22.6-2.3l9,6.8l9,32.1l-9,32.1l-2.3,32.1l-6.8,32.1l-20.3,32.1l-2.3,9.3
			l-6.8,22.8l-11.3,32.1l-4.5,6.8l-20.3,18.3"/>
		<path class="st0" d="M899.4-1079.2h6.8l-4.5,4.5L899.4-1079.2"/>
		<path class="st0" d="M935.5-1109l9-11.5l6.8,11.5l-6.8,4.5L935.5-1109"/>
		<path class="st0" d="M1283.3-1079.2l9-4.5l13.6,4.5l-13.6,13.8L1283.3-1079.2"/>
		<path class="st0" d="M750.3-584.8l6.8-13.8l13.6-9.3l22.6,6.8l22.6,11.5l20.3-6.8v-20.6v-13.8l15.8-32.1l6.8-9.3l22.6-22.8
			l20.3-27.6l2.3-4.5l2.3-32.1l9-32.1l9-16l11.3-16l9-9.3l22.6-6.8l22.6,4.5l20.3,2.3l22.6-9.3l20.3-13.8l22.6-4.5h22.6l20.3,2.3
			l13.6,34.3l6.8,32.1l2.3,13.8l6.8,18.3l9,32.1l4.5,4.5l11.3-4.5l11.3-2.3h22.6l11.3,2.3l9,6.8l2.3-6.8l-2.3-9.3l-4.5-22.8
			l-13.6-32.1l11.3-32.1l6.8-18.3l6.8-13.8l15.8-16l22.6-11.5l20.3-2.3h22.6l20.3,2.3l22.6,9.3l22.6,9.3l20.3,6.8l4.5,2.3l18.1,20.6
			h20.3l22.6-4.5l22.6-4.5h20.3l22.6,2.3l22.6-4.5l20.3-4.5l20.3,27.6l2.3,13.8l4.5,18.3l15.8,16l22.6-9.3l6.8-6.8l15.8-20.6
			l6.8-11.5l13.6-18.3l18.1-13.8l4.5-2.3l20.3,2.3l22.6,18.3l22.6,6.8l20.3-13.8l18.1-11.5l4.5-2.3l20.3-9.3l22.6-4.5h22.6l20.3,4.5
			l13.6,11.5l9,6.8l22.6,18.3l9,6.8l11.3,9.3l22.6-6.8h20.3l22.6,9.3l22.6,9.3l20.3-4.5l22.6-6.8l20.3,9.3l9,13.8l13.6,20.6
			l22.6,11.5l20.3-11.5l22.6-11.5l22.6-2.3h20.3l22.6,2.3l20.3,9.3l15.8,13.8l6.8,11.5h22.6l20.3-6.8l22.6,6.8l20.3,4.5l22.6,2.3
			l22.6-4.5l20.3-13.8l22.6-16l20.3-9.3l22.6-4.5l4.5-2.3l18.1-4.5h20.3l6.8,4.5l15.8,11.5l22.6,11.5l20.3,9.3l22.6,9.3h20.3
			l15.8,22.8l6.8,13.8l22.6,11.5l20.3,6.8l22.6,6.8l20.3,4.5l22.6-4.5l22.6-2.3l13.6-4.5l6.8-2.3l22.6-11.5l22.6-11.5l20.3-6.8
			l22.6-2.3l20.3-4.5l22.6,4.5l20.3,34.3l2.3,11.5l4.5,20.6l4.5,32.1l11.3,29.8v9.3l-2.3,25.3l-18.1,32.1l-11.3,32.1l-11.3,18.3
			l-22.6,11.5l-13.6,2.3l-6.8,2.3l-22.6,29.8l-18.1,32.1l-2.3,6.8l-18.1,25.3l-4.5,4.5l-22.6,13.8l-20.3,9.3l-9,4.5l9,20.6l4.5,11.5
			l15.8,32.1l22.6,2.3l13.6-2.3l9-2.3l20.3,25.3l6.8,9.3l15.8,6.8l20.3,6.8l11.3,18.3l11.3,18.3l11.3,13.8l11.3,27.6l2.3,36.6
			l-2.3,4.5L2986.3-87l-22.6,29.8l-13.6,34.3l-6.8,6.8l-22.6,13.8l-20.3,9.3l-6.8,2.3l-15.8,25.3l-4.5,6.8l-18.1,20.6L2835,73.3
			h-22.6l-22.6,16l-2.3,16l2.3,9.3l9,22.8l-4.5,32.1l-4.5,27.6l-9,36.6"/>
		<path class="st0" d="M750.3-866.5h20.3l22.6-6.8l22.6,4.5l4.5,13.8l-4.5,22.8l-4.5,9.3v32.1L800-758.7l-6.8,9.3l-11.3,22.8
			l-6.8,32.1l-4.5,11.5l-11.3,20.6l-9,11.5"/>
		<path class="st0" d="M750.3-545.7l6.8-20.6l13.6-22.8l22.6,4.5l22.6,6.8h20.3l13.6-20.6v-32.1l9-16l11.3-16l11.3-11.5l20.3-13.8
			l9-6.8l6.8-32.1v-32.1l6.8-20.6l4.5-11.5l15.8-18.3l15.8-13.8l6.8-2.3l22.6,2.3l20.3,4.5h22.6l6.8-4.5l13.6-11.5l22.6-6.8h22.6
			l20.3,13.8l2.3,4.5l9,32.1l6.8,32.1v32.1l4.5,27.6l20.3,4.5l22.6-11.5l22.6,2.3l11.3,9.3l9,11.5l22.6,20.6l9-32.1l-9-22.8
			l-2.3-9.3l-11.3-32.1l-9-25.3l-2.3-6.8l2.3-6.8l11.3-25.3l11.3-27.6l2.3-4.5l20.3-11.5l20.3-4.5l22.6,2.3h20.3l22.6,11.5l6.8,2.3
			l15.8,9.3l20.3,13.8l11.3,9.3l11.3,11.5l20.3-6.8l9-4.5l13.6-4.5l22.6-2.3h20.3l22.6,2.3l22.6,2.3l9,2.3l11.3,22.8l2.3,9.3
			l13.6,32.1l6.8,13.8l20.3-4.5l15.8-9.3l6.8-2.3l22.6-25.3l4.5-4.5l15.8-22.8l9-9.3l13.6-9.3l20.3,9.3l22.6,20.6l18.1,11.5l4.5,2.3
			l20.3-20.6l11.3-13.8l11.3-6.8l20.3-11.5l22.6-9.3l22.6,4.5l20.3,11.5l20.3,11.5l24.8,20.6l13.6,11.5l6.8,4.5l22.6,2.3l15.8-6.8
			h13.6l13.6,2.3l22.6,4.5h20.3h22.6l20.3,18.3l4.5,6.8l18.1,20.6l22.6,4.5l20.3-11.5l18.1-13.8l4.5-2.3l22.6-4.5l20.3-2.3h22.6
			l15.8,9.3l4.5,4.5l20.3,27.6l2.3,4.5h22.6l20.3-4.5l22.6,4.5h20.3h22.6l22.6-2.3l6.8-2.3l13.6-6.8l22.6-16l15.8-9.3l4.5-2.3
			l22.6-6.8l22.6-4.5l20.3,4.5l15.8,9.3l6.8,4.5l22.6,11.5l15.8,16l4.5,4.5l22.6,9.3l15.8,18.3l4.5,4.5l22.6,11.5l22.6,2.3l20.3,6.8
			l22.6,4.5l20.3-4.5l22.6-4.5l22.6-4.5l20.3-4.5l22.6-9.3l22.6-13.8l20.3-4.5l22.6-2.3h20.3l22.6,18.3l9,32.1v32.1l13.6,29.8
			l2.3,34.3l-2.3,4.5l-15.8,27.6l-6.8,18.3l-9,13.8l-13.6,9.3l-20.3,2.3l-22.6,18.3l-20.3,34.3l-18.1,32.1l-4.5,9.3l-22.6,18.3
			l-6.8,4.5l-13.6,6.8l-22.6,11.5l-22.6,11.5v34.3l22.6,6.8l22.6,22.8l20.3,29.8h22.6l11.3,4.5l11.3,6.8l20.3,20.6l22.6,2.3
			l20.3,25.3l4.5,9.3l9,32.1l-2.3,32.1l-11.3,9.3L2947.9-85l-4.5,32.1l-22.6,29.8l-20.3,6.8l-22.6,6.8l-13.6,18.3l-9,13.8L2835,40.8
			l-22.6,6.8l-22.6,6.8l-20.3,6.8l-13.6,11.5l6.8,32.1l6.8,13.8l11.3,18.3v32.1l-9,32.1l-2.3,13.8L2765,233"/>
		<path class="st0" d="M750.3-848.2h20.3l22.6,25.3v32.1l-13.6,32.1l-9,18.3l-4.5,13.8v32.1l-15.8,25.3"/>
		<path class="st0" d="M750.3-490.9l6.8-11.5l13.6-32.1l22.6-18.3l22.6,2.3l20.3,4.5l22.6-2.3l22.6-16v-9.3l-4.5-25.3l4.5-18.3
			l2.3-13.8l18.1-18.3l22.6-11.5l20.3-27.6l4.5-6.8l2.3-32.1v-31.6l15.8-20.6l9-11.5l13.6-4.5l20.3,2.3l15.8,2.3l6.8,2.3l20.3-11.5
			l22.6-6.8h22.6l11.3,16l9,32.1l-2.3,32.1v32.1l2.3,32.1l22.6,9.3l20.3-4.5h22.6l22.6,9.3l20.3,18.3l22.6,11.5l22.6,16l9,4.5
			l11.3,6.8l2.3-6.8l4.5-32.1l-6.8-32.1l-6.8-32.1l-11.3-32.1l-2.3-9.3l-11.3-22.8v-32.1l11.3-22.8l6.8-9.3l13.6-11.5l22.6-4.5
			l20.3,2.3l22.6,9.3l6.8,4.5l15.8,13.8l15.8,18.3l4.5,6.8l22.6,13.8l20.3-9.3l18.1-11.5l4.5-2.3l22.6-2.3l20.3-2.3l22.6,4.5
			l4.5,2.3l18.1,25.3l2.3,6.8v32.1l-2.3,32.1l4.5,32.1l15.8,6.8l20.3-6.8l11.3-32.1l11.3-11.5l22.6-13.8l6.8-6.8l15.8-11.5l20.3-16
			l9-4.5l13.6-4.5l18.1,4.5l24.8,13.8l22.6,13.8l20.3-6.8l22.6-16l11.3-4.5l9-6.8l22.6-4.5h22.6l20.3-2.3l22.6,6.8l18.1,6.8l4.5,2.3
			l20.3,25.3l6.8,4.5l15.8,16l11.3-16l9-9.3l22.6-11.5h22.6l20.3,6.8l22.6,13.8l20.3,18.3l20.3,13.8l24.8,4.5l9-4.5l11.3-4.5
			l22.6-16l18.1-11.5l4.5-2.3l20.3-4.5l20.3,6.8l18.1,32.1l4.5,4.5l22.6,11.5h22.6l20.3-4.5h22.6l20.3-2.3l22.6-4.5l22.6-4.5
			l20.3-6.8l22.6-6.8l20.3-4.5l22.6-4.5l22.6-2.3l20.3,2.3l22.6,11.5l9,11.5l13.6,25.3l13.6,6.8l6.8,4.5l22.6,9.3l20.3,6.8l22.6,2.3
			l22.6,2.3l20.3,6.8h6.8l15.8,2.3l6.8-2.3l13.6-4.5l22.6-6.8l22.6-6.8l20.3-4.5l18.1-9.3l4.5-2.3l22.6-6.8l20.3-2.3l22.6-2.3
			l15.8,13.8l2.3,32.1l2.3,32.1l4.5,32.1l-4.5,4.5l-18.1,27.6l-24.8,16l-15.8,16l-4.5,4.5l-22.6,27.6l-20.3,32.1l-22.6,27.6
			l-4.5,4.5l-18.1,13.8l-22.6,16l-20.3,16l-22.6,4.5l-20.3,2.3l-11.3,11.5l6.8,32.1l4.5,4.5l20.3,22.8l22.6,2.3l4.5,2.3l15.8,9.3
			l18.1,22.8l4.5,4.5l22.6,25.3l20.3,20.6l22.6,6.8l6.8,6.8l15.8,25.3l2.3,6.8l-2.3,6.8l-13.6,25.3l-9,11.5h-22.6l-20.3-4.5
			l-18.1-6.8l-4.5-2.3l-6.8,34.3l6.8,4.5l13.6,27.6l-2.3,29.8l-11.3,13.8l-22.6,11.5l-20.3,4.5l-15.8,2.3l-6.8,2.3l-20.3,16
			l-11.3,13.8L2704,59.8l-6.8,13.8l6.8,16l13.6,16l9,11.5l13.6,20.6l4.5,32.1l-15.8,32.1l-2.3,4.5H2704l-6.8-4.5l-15.8-11.5
			l-20.3-4.5l-22.6,16l-20.3,22.8l-22.6,9.3l0,0"/>
		<path class="st0" d="M750.3-800.1l4.5,9.3l-4.5,16"/>
		<path class="st0" d="M2191.3,232.6l-9-11.5l-20.3,11.5l0,0"/>
		<path class="st0" d="M750.3-474.8l15.8-27.6l4.5-11.5l20.3-20.6l24.8-2.3l9,2.3l11.3,6.8h22.6l9-6.8l13.6-6.8l18.1-25.3l-4.5-32.1
			l6.8-27.6l2.3-4.5l20.3-13.8l20.3-9.3l11.3-9.3l11.3-32.1l9-32.1v-31.6l13.6-13.8l20.3-2.3l22.6-2.3l20.3-6.8l15.8-6.8l6.8-2.3
			l22.6,2.3l9,32.1v32.1l-2.3,32.1v32.1l11.3,32.1h11.3l13.6-4.5l20.3-6.8l22.6-2.3l22.6,11.5l20.3,16l22.6,18.3l22.6,20.6
			l15.8,11.5l4.5,2.3l18.1-34.3V-630l-6.8-32.1l-6.8-32.1l-4.5-11.5l-6.8-20.6l-11.3-32.1l6.8-32.1l11.3-16l22.6-16l20.3,2.3
			l22.6,9.3l22.6,18.3l20.3,25.3l13.6,9.3l9,6.8l20.3-6.8l22.6-9.3l22.6-6.8l20.3-2.3l22.6,4.5l9,13.8l2.3,32.1v32.1l-4.5,32.1
			l15.8,25.3h20.3l22.6,4.5l15.8-29.8l4.5-13.8l20.3-18.3l24.8-20.6l13.6-11.5l6.8-4.5l22.6-6.8l20.3,4.5l13.6,6.8l9,6.8l22.6,18.3
			l20.3-2.3l15.8-22.8l6.8-4.5l20.3-11.5l22.6-4.5h22.6h20.3l22.6,6.8l22.6,13.8l20.3,22.8l9,9.3l13.6,13.8l18.1-13.8l2.3-4.5
			l22.6-22.8l11.3-4.5l11.3-2.3l4.5,2.3l15.8,9.3l22.6,16l11.3,6.8l9,6.8l22.6,16l22.6,4.5l20.3-11.5l22.6-11.5l4.5-4.5l18.1-11.5
			h20.3l9,11.5l13.6,11.5l20.3,11.5l20.3,9.3l24.8,6.8l13.6-6.8l6.8-2.3l22.6-4.5l20.3-2.3l22.6-2.3l22.6-6.8l20.3-6.8l22.6-6.8
			l20.3-2.3l22.6-4.5h22.6l20.3,4.5l4.5,2.3l18.1,32.1l22.6,25.3l13.6,6.8l6.8,2.3l22.6,6.8l20.3-2.3h22.6l22.6,2.3l20.3,6.8
			l22.6,6.8l20.3-9.3l22.6-9.3l13.6-4.5l9-2.3l20.3-4.5l22.6-9.3l22.6-6.8l20.3,4.5l22.6,18.3l-2.3,32.1v32.1l-20.3,22.8l-11.3,9.3
			l-9,9.3l-20.3,22.8l-24.8,32.1l-18.1,32.1l-2.3,4.5l-22.6,20.6l-4.5,6.8l-18.1,13.8l-20.3,18.3h-6.8l-15.8,2.3l-15.8-2.3h-6.8
			l-20.3,16l-20.3,16l15.8,32.1l4.5,4.5L2722-277l4.5,4.5l20.3,13.8l22.6,2.3l13.6,11.5l6.8,9.3l18.1,22.8l4.5,18.3l4.5,13.8
			l-4.5,22.8l-2.3,9.3l-20.3,9.3l-18.1,22.8l-2.3,11.5l-4.5,20.6l4.5,6.8l20.3,25.3l-20.3,22.8l-11.3,6.8l-11.3,6.8l-20.3,13.8
			L2713,9.2l-9,11.5L2681.4,39l-20.3,34.3l6.8,32.1l-6.8,13.8l-15.8,18.3l-6.8,4.5l-20.3,18.3l-9,9.3l-13.6,13.8l-22.6,9.3
			l-20.3,9.3l-22.6,20.6l-22.6,11.5l0,0"/>
		<path class="st0" d="M2211.6,232.6l-6.8-6.8l-15.8-25.3l-6.8-9.3l-20.3,2.3l-4.5,6.8l-18.1,25.3l-22.6,4.5l-15.8,2.3"/>
		<path class="st0" d="M2482.6,232.6l-18.1-2.3h-20.3l-13.6,2.3"/>
		<path class="st0" d="M750.3-456.5l9-13.8l11.3-20.6l9-11.5l13.6-13.8l22.6-2.3l20.3,13.8l22.6,2.3l22.6-20.6l20.3-11.5l11.3-32.1
			l2.3-32.1l9-25.3l9-6.8l11.3-2.3l22.6-13.8l6.8-16l11.3-32.1l4.5-9.3l6.8-22.8l13.6-25.3l6.8-6.8l15.8-4.5l20.3-6.8l22.6-9.3
			l22.6,18.3v34.3v16l-4.5,16l2.3,32.1l2.3,13.8l4.5,18.3l15.8,18.3l22.6-6.8l20.3-9.3l22.6-2.3l22.6,13.8l20.3,16l4.5,2.3l18.1,16
			l13.6,16l2.3,32.1l6.8,6.8l18.1-6.8l18.1-32.1l6.8-13.8l6.8-18.3v-32.1l-6.8-32.1l-9-32.1l-6.8-32.1l-6.8-20.6l-2.3-11.5l2.3-9.3
			l13.6-22.8l9-6.8l20.3-4.5l22.6,6.8l6.8,4.5l15.8,13.8l13.6,18.3l6.8,9.3l22.6,13.8l20.3-4.5l22.6-6.8l22.6-6.8l20.3-2.3
			l22.6,29.8l-2.3,32.1l-4.5,32.1l2.3,32.1l4.5,6.8l22.6,9.3l20.3-6.8l22.6,2.3l20.3-2.3l6.8-9.3l9-32.1l6.8-9.3l22.6-18.3l4.5-4.5
			l15.8-13.8l22.6-6.8l20.3,2.3l22.6,13.8l4.5,4.5l18.1,22.8l20.3,6.8l13.6-29.8l9-11.5l20.3-18.3l9-2.3l13.6-2.3h22.6h20.3l4.5,2.3
			l18.1,6.8l22.6,16l6.8,9.3l13.6,32.1l22.6,2.3l13.6-2.3l6.8-2.3l22.6-20.6l13.6-9.3l9-4.5l11.3,4.5l9,4.5l22.6,16l20.3,11.5
			l22.6,13.8l22.6,4.5l20.3-13.8l11.3-4.5l11.3-6.8l22.6-9.3l20.3,4.5l20.3,11.5l22.6,11.5l22.6,16l22.6,4.5l20.3-13.8l22.6-6.8
			l20.3-4.5l22.6-2.3l13.6-4.5l9-2.3l20.3-9.3l22.6-6.8l20.3-2.3h22.6l22.6,6.8l15.8,13.8l4.5,11.5l9,20.6l13.6,6.8l22.6,6.8
			l20.3,6.8l22.6,4.5l20.3-2.3l22.6-2.3l22.6,2.3l20.3,9.3l22.6,9.3l20.3-6.8l9-2.3l13.6-4.5l22.6-4.5l20.3-6.8l22.6-9.3l22.6-6.8
			l15.8,32.1l-9,32.1l-6.8,6.8l-22.6,25.3l-22.6,11.5l-13.6,20.6l-4.5,32.1l-2.3,4.5l-15.8,27.6l-6.8,6.8l-22.6,22.8l-20.3,18.3
			l-22.6,2.3l-20.3-4.5l-22.6,2.3l-13.6,16l-9,6.8l-20.3,16l-6.8,9.3l6.8,27.6l2.3,4.5l18.1,13.8l13.6,18.3l9,6.8l22.6,22.8
			l20.3,11.5l22.6,6.8l13.6,16l-2.3,32.1l-11.3,18.3l-9,13.8l-13.6,16l-15.8,16l-4.5,20.6l-2.3,11.5l2.3,4.5l13.6,27.6l-13.6,9.3
			l-20.3,20.6l-24.8,16L2661.1,2l-22.6,6.8l-13.6,32.1l-2.3,32.1l-4.5,16l-6.8,16l-15.8,27.6l-4.5,4.5l-18.1,25.3l-6.8,6.8
			l-13.6,9.3l-22.6,9.3l-22.6,11.5l-4.5,2.3l-15.8,9.3h-22.6h-20.3l-22.6,4.5l-22.6,13.8l-4.5,4.5"/>
		<path class="st0" d="M2231.9,232.6l-4.5-2.3l-22.6-22.8l-4.5-6.8l-15.8-32.1l-2.3-4.5l-20.3,2.3l-20.3,34.3l-24.8,16l-20.3,4.5
			h-22.6l-13.6,11.5"/>
		<path class="st0" d="M2317.8,232.6l-4.5-2.3l-22.6,2.3l0,0"/>
		<path class="st0" d="M750.3-438.2l20.3-29.8l4.5-2.3l18.1-22.8l22.6,6.8l9,16l11.3,16l22.6-13.8l22.6-34.3l20.3-11.5l18.1-20.6
			l4.5-11.5l4.5-20.6l9-32.1l6.8-9.3l22.6-9.3l11.3-13.8l11.3-20.6l4.5-11.5l13.6-32.1l2.3-9.3l11.3-22.8l11.3-11.5l20.3-16l6.8-4.5
			l15.8-4.5l4.5,4.5l2.3,32.1v32.1l2.3,32.1l4.5,32.1l9,18.3l18.1,13.8l24.8-6.8l20.3-6.8l22.6-2.3l22.6,11.5l4.5,4.5l15.8,13.8
			l20.3,18.3v32.1l2.3,20.6l6.8,11.5l15.8,2.3l20.3-18.3l15.8-16l6.8-11.5l6.8-20.6l11.3-32.1v-32.1l-6.8-32.1l-9-32.1l-2.3-18.3
			l-2.3-13.8l-4.5-32.1l6.8-9.3l20.3-13.8l22.6,6.8l22.6,16l20.3,27.6l9,4.5l13.6,6.8l20.3-4.5l9-2.3l13.6-4.5l22.6-4.5l20.3,4.5
			l4.5,4.5l2.3,32.1v32.1l-2.3,32.1l18.1,27.6l9,4.5l13.6,4.5l6.8-4.5l13.6-6.8l22.6-2.3l20.3,4.5l22.6-27.6l18.1-32.1l4.5-2.3
			l20.3-18.3l22.6-11.5l20.3,2.3l22.6,16l9,13.8l13.6,13.8l20.3,16l18.1-29.8l4.5-11.5l11.3-20.6l9-9.3l22.6-6.8l22.6-4.5l20.3,2.3
			l22.6,11.5l9,6.8l13.6,27.6l20.3,25.3l22.6-2.3l20.3-2.3l22.6-6.8l22.6-6.8h20.3l22.6,13.8l20.3,9.3l13.6,6.8l9,2.3l22.6,4.5
			l11.3-6.8l9-6.8l22.6-11.5l22.6-4.5l20.3,4.5l22.6,9.3l15.8,9.3l4.5,2.3l22.6,18.3l22.6,6.8l20.3-20.6l13.6-6.8l9-2.3l20.3-6.8
			l22.6-6.8l22.6-6.8l20.3-6.8l4.5-2.3l18.1-4.5l20.3-2.3l22.6,6.8l22.6,25.3l2.3,6.8l18.1,18.3l22.6,6.8l20.3,6.8l22.6,6.8
			l22.6,2.3l20.3-4.5l22.6-2.3l22.6,4.5l20.3,11.5l22.6,9.3l20.3-4.5h22.6l18.1,9.3l-4.5,32.1l-6.8,32.1v32.1l-6.8,9.3l-11.3,22.8
			l-11.3,9.3l-20.3,20.6l-4.5,2.3l-18.1,4.5l-13.6-4.5l-6.8-2.3l-22.6-6.8l-22.6,6.8l-20.3,32.1l-4.5,2.3l-18.1,27.6v11.5l2.3,25.3
			l20.3,27.6l4.5,4.5l15.8,18.3l18.1,13.8l4.5,4.5l22.6,20.6l11.3,6.8l9,22.8l2.3,9.3l-22.6,16l-13.6,16l-9,6.8l-11.3,25.3
			l-11.3,25.3l-4.5,6.8l4.5,32.1l-20.3,20.6l-15.8,9.3l-6.8,4.5l-20.3,18.3l-11.3,9.3l-4.5,32.1l-4.5,32.1l-24.8,32.1l-15.8,32.1
			l-4.5,6.8l-22.6,18.3l-18.1,6.8l-4.5,2.3l-20.3,9.3l-22.6,6.8l-20.3,2.3l-22.6,4.5l-22.6,6.8l-20.3,13.8l-22.6,13.8l-20.3-4.5
			l-22.6-9.3h-22.6l-20.3,16h-22.6l-20.3-16l-13.6-13.8l-9-16l-9-16l-13.6-27.6l-20.3,6.8l-15.8,20.6l-6.8,13.8l-15.8,18.3l-6.8,4.5
			l-20.3,2.3l-13.6-6.8l-9-4.5l-20.3-9.3l-22.6,4.5l-6.8,9.3l6.8,32.1"/>
		<path class="st0" d="M750.3-271.1l6.8-6.8l6.8-32.1l-13.6-18.3"/>
		<path class="st0" d="M750.3-399.4l6.8-6.8l13.6-16l22.6-4.5l18.1,20.6l4.5,2.3l20.3,6.8l18.1-9.3l4.5-6.8l15.8-25.3l6.8-6.8
			l20.3-16l9-9.3l13.6-11.5l20.3-20.6l6.8-32.1l13.6-32.1l24.8-20.6l18.1-11.5l2.3-4.5l22.6-25.3l20.3-2.3l18.1,32.1l4.5,11.5
			l13.6,20.6l9,4.5l18.1-4.5l24.8-6.8l20.3-6.8h22.6l22.6,11.5l4.5,2.3l6.8,32.1l2.3,32.1l6.8,27.6l2.3,4.5l20.3,20.6l18.1-20.6
			l4.5-2.3l20.3-16l20.3-13.8l22.6-32.1l11.3-32.1l11.3-22.8l6.8-9.3l-2.3-32.1l-4.5-6.8l-11.3-25.3v-32.1l11.3-27.6l22.6,9.3
			l20.3,16l4.5,2.3l18.1,9.3l20.3-2.3l22.6-4.5l22.6,18.3l2.3,11.5l-2.3,20.6l-2.3,11.5l2.3,16l2.3,16l18.1,11.5l22.6,11.5l15.8,9.3
			l6.8,4.5h20.3l6.8-4.5l15.8-9.3l20.3,6.8l6.8,2.3l15.8,9.3l20.3-9.3l2.3-4.5l2.3-27.6l11.3-32.1l6.8-6.8l22.6-13.8l20.3,2.3
			l22.6,18.3l22.6,22.8l11.3,9.3l9,9.3l22.6-9.3l11.3-32.1l9-22.8l9-9.3l13.6-9.3l22.6-6.8l20.3,2.3l13.6,13.8l2.3,32.1l6.8,11.5
			l22.6,16l20.3-4.5l22.6-6.8l20.3,2.3l22.6,4.5l22.6-2.3l20.3,2.3l22.6,4.5l20.3,4.5l22.6,4.5l22.6,4.5l20.3-6.8l22.6-16l22.6-4.5
			l20.3,6.8l22.6,9.3l20.3,16l22.6,13.8l18.1,4.5l24.8-13.8l22.6-18.3l20.3-11.5l22.6-9.3l22.6-9.3l13.6-2.3h6.8h22.6l20.3,4.5
			l22.6,20.6l4.5,6.8l18.1,29.8l20.3-4.5l22.6,4.5l22.6,11.5l20.3,4.5l22.6-2.3l20.3-11.5l22.6,2.3l22.6,11.5l20.3,16l6.8,2.3
			l15.8,13.8l9,18.3v32.1l-9,16l-13.6,16l-9,4.5l-20.3-2.3l-6.8-2.3l-15.8-9.3l-22.6-4.5l-13.6,13.8l-6.8,11.5l-18.1,20.6l-4.5,2.3
			l-20.3,22.8l-4.5,6.8l-9,32.1l-4.5,32.1l18.1,18.3l9,13.8l11.3,32.1l11.3,32.1l11.3,20.6l4.5,11.5l-4.5,18.3l-6.8,13.8l-15.8,6.8
			l-20.3,20.6l-2.3,4.5l-11.3,32.1l-9,32.1L2573-26.5l-20.3,25.3l-13.6,9.3l-2.3,32.1l-6.8,32.1l-22.6,11.5l-20.3,11.5l-22.6,4.5
			l-11.3,4.5l-9,4.5l-22.6,16l-11.3,11.5l-11.3,13.8h-20.3h-22.6l-20.3,6.8l-22.6,11.5l-22.6,4.5l-20.3,16l-22.6,11.5l-20.3-25.3
			l-4.5-6.8l-13.6-32.1l-4.5-9.3l-13.6-22.8l-9-6.8l-18.1,6.8l-24.8,32.1l-22.6,27.6l-11.3,4.5l-9,2.3l-6.8-2.3l-15.8-9.3
			l-20.3-11.5l-22.6-2.3l-20.3,22.8l-2.3,4.5L1988,198l-4.5,2.3l2.3,32.1"/>
		<path class="st0" d="M750.3-195.4l2.3-18.3v-32.1l18.1-27.6l11.3-4.5l-2.3-32.1l-9-11.5L754.8-342l-4.5-32.1l20.3-25.3l22.6-2.3
			l22.6,11.5l20.3,6.8l22.6-4.5l11.3-18.3l11.3-13.8l20.3-18.3l22.6-22.8l9-9.3l11.3-13.8l18.1-18.3l4.5-22.8l2.3-9.3l20.3-29.8
			l20.3-16l22.6-18.3l20.3,4.5l11.3,27.6l11.3,18.3l22.6,4.5l20.3-6.8l22.6-6.8l20.3-6.8l22.6,4.5l15.8,25.3l6.8,27.6l9,36.6
			l11.3,32.1l22.6,18.3l15.8-18.3l6.8-9.3l11.3-22.8l9-6.8l22.6-11.5l11.3-13.8l9-13.8l11.3-18.3l11.3-27.6l2.3-4.5l18.1-32.1
			l2.3-11.5l2.3-20.6l-2.3-4.5l-18.1-27.6l18.1-22.8l20.3,9.3l22.6,9.3l20.3-2.3h22.6l4.5,6.8l-2.3,32.1l4.5,32.1l15.8,16l20.3,9.3
			l18.1,6.8l4.5,2.3l22.6,22.8h20.3l22.6-16l20.3,2.3l22.6,16h22.6l11.3-27.6l6.8-32.1l2.3-4.5l22.6-25.3h20.3l22.6,16l13.6,13.8
			l9,9.3l20.3,22.8l22.6-6.8l15.8-25.3l4.5-18.3l6.8-13.8l15.8-18.3l22.6-6.8l20.3,16l2.3,9.3l18.1,32.1l24.8,13.8l20.3-6.8
			l20.3-6.8h13.6h9l22.6,6.8h22.6h20.3l22.6,2.3l20.3,2.3l22.6,4.5l22.6,9.3l20.3-4.5l22.6-18.3l11.3-2.3l11.3-2.3l6.8,2.3l13.6,4.5
			l22.6,13.8l18.1,13.8l24.8,9.3l22.6,4.5l20.3-6.8l11.3-6.8l11.3-9.3l20.3-18.3l9-4.5l13.6-6.8l22.6-6.8l20.3-2.3l22.6,4.5
			l20.3,9.3l4.5,2.3l6.8,32.1l11.3,18.3h22.6l20.3-4.5l22.6,4.5l22.6,9.3h20.3h22.6l20.3-6.8l22.6,4.5l11.3,6.8l11.3,11.5l20.3,16
			l4.5,4.5l4.5,32.1l-9,9.3l-20.3,2.3l-22.6-6.8l-22.6-4.5l-20.3,18.3l-9,13.8l-13.6,16l-20.3,16l-22.6,32.1l-11.3,32.1l-11.3,18.3
			l-4.5,13.8l4.5,9.3l22.6,13.8l9,9.3l13.6,22.8l2.3,9.3l6.8,32.1l2.3,32.1l-11.3,27.6l-2.3,4.5l-20.3,25.3l-4.5,6.8l-15.8,32.1
			l-13.6,32.1l-9,13.8l-13.6,16l-9,6.8l-22.6,18.3l-9,6.8l-11.3,18.3l-6.8,13.8l-15.8,16l-20.3,16l-22.6,13.8l-22.6,11.5l-13.6,6.8
			l-6.8,4.5l-22.6,2.3l-20.3,2.3l-22.6,16l-13.6,6.8l-9,6.8l-20.3,11.5h-22.6l-20.3-16l-13.6-34.3l-9-9.3l-22.6-18.3l-20.3,13.8
			l-18.1,13.8l-4.5,9.3l-15.8,22.8l-6.8,6.8l-20.3,6.8l-22.6-11.5l-4.5-2.3l-15.8-6.8l-22.6-2.3l-15.8,9.3l-6.8,6.8L1997,170
			l-9,11.5l-22.6,16l-4.5,4.5l4.5,16l2.3,16"/>
		<path class="st0" d="M750.3-154.3l9-27.6l4.5-32.1v-31.8l6.8-9.3l22.6-16l13.6-6.8l-11.3-32.1L775.1-342l-4.5-20.6v-11.5l22.6-9.3
			l22.6,6.8l6.8,2.3l13.6,4.5h22.6l11.3-4.5l11.3-13.8l4.5-18.3l15.8-16l15.8-16l6.8-6.8l20.3-20.6l4.5-4.5l18.1-20.6l9-11.5l9-32.1
			l4.5-4.5l20.3-20.6l11.3-6.8l11.3-6.8l9,6.8L1053-548l6.8,13.8l15.8,9.3h22.6l20.3-6.8l6.8-2.3l15.8-4.5l20.3-6.8l20.3,11.5
			l9,32.1l9,32.1l6.8,16l4.5,16l13.6,32.1l2.3,4.5l22.6,11.5l9-16l13.6-18.3l6.8-13.8l13.6-22.8l15.8-9.3l6.8-2.3l20.3-22.8l4.5-6.8
			l18.1-32.1l13.6-32.1l9-13.8l15.8-18.3l4.5-16l22.6-9.3l20.3,11.5l6.8,13.8l15.8,13.8l20.3,18.3l22.6,4.5l22.6,16l11.3,11.5
			l11.3,11.5l20.3-2.3l11.3-9.3l11.3-6.8h20.3l11.3,6.8l11.3,13.8h22.6l11.3-13.8l9-20.6l4.5-11.5l15.8-32.1l22.6-6.8l13.6,6.8
			l9,4.5l22.6,22.8l4.5,4.5l15.8,22.8l22.6-2.3l13.6-20.6l6.8-13.8l13.6-18.3l9-22.8l22.6-6.8l20.3,27.6l22.6,22.8l20.3,11.5
			l22.6-9.3l22.6-6.8l20.3,2.3l22.6,4.5h22.6l20.3-2.3l22.6,2.3h20.3l22.6,6.8l6.8,2.3l15.8,9.3l20.3-2.3l11.3-6.8l11.3-9.3
			l22.6-4.5l20.3,6.8l11.3,6.8l11.3,6.8l20.3,11.5l22.6,4.5l22.6,4.5l20.3-2.3l22.6-9.3l15.8-16l4.5-4.5l22.6-18.3l22.6-9.3
			l20.3,2.3l22.6,16l9,13.8l11.3,29.8l22.6,11.5l22.6-4.5h20.3l22.6,4.5l22.6,6.8h20.3l22.6,4.5l20.3,6.8l15.8,4.5l-15.8,2.3
			l-20.3,18.3l-6.8,11.5l-15.8,25.3l-2.3,6.8l-18.1,13.8l-18.1,18.3l-4.5,6.8l-15.8,25.3l-6.8,11.5l-4.5,20.6l-15.8,29.8v6.8
			l13.6,27.6l6.8,4.5l22.6,16l6.8,11.5l6.8,32.1l-6.8,32.1l-6.8,11.5l-20.3,20.6l-20.3,32.1l-2.3,9.3l-9,22.8l-13.6,25.3l-4.5,6.8
			l-18.1,13.8l-20.3,13.8l-6.8,2.3l-15.8,20.6l-2.3,11.5l-15.8,32.1l-2.3,4.5l-22.6,9.3l-22.6,9.3l-20.3,4.5l-22.6,2.3l-20.3,2.3
			l-22.6,25.3l-6.8,6.8l-15.8,9.3l-20.3,6.8l-22.6-4.5L2241,105l-13.6-16l-15.8-16l-6.8-4.5l-22.6-9.3l-20.3,13.8l-22.6,18.3
			l-13.6,13.8l-9,11.5l-20.3,11.5l-22.6-6.8l-20.3-6.8l-20.3-9.3l-24.8,13.8l-18.1,18.3l-2.3,6.8l-22.6,25.3l-20.3,11.5l-11.3,20.6
			l11.3,25.3l2.3,6.8"/>
		<path class="st0" d="M750.3-120l11.3-29.8l9-32.1l4.5-32.1l4.5-32.1l13.6-11.5l22.6-11.5l6.8-9.3l-4.5-32.1l-2.3-13.8l-13.6-18.3
			l13.6-6.8l20.3-2.3l22.6-4.5l22.6-6.8l9-11.5l11.3-32.1l22.6-22.6l9-9.3l11.3-11.5l18.1-20.6l4.5-6.8l22.6-22.8L1010-532h22.6
			l20.3,20.6l22.6,2.3l22.6-2.3l20.3-6.8l22.6-4.5h20.3l13.6,20.6l9,32.1l11.3,32.1l11.3,25.3l2.3,6.8l18.1,27.6l9,4.5l13.6,6.8
			l6.8-6.8l15.8-29.8l18.1-34.3l2.3-4.5l22.6-18.3l13.6-9.3l6.8-9.3l15.8-22.8l6.8-11.5l9-20.6l13.6-27.6l4.5-4.5l15.8-20.6
			l22.6-4.5l20.3,11.5l13.6,13.8l9,6.8l22.6,9.3l20.3,2.3l18.1,13.8l4.5,9.3l22.6,22.8l20.3-6.8l22.6-16l20.3,4.5l18.1,18.3l4.5,4.5
			l22.6-4.5l20.3-22.8l6.8-9.3l11.3-32.1l4.5-9.3l20.3-11.5l22.6,9.3l11.3,11.5l11.3,13.8l13.6,18.3l6.8,9.3h22.6l9-9.3l11.3-18.3
			l11.3-13.8l11.3-18.3l22.6-9.3l20.3,13.8l15.8,13.8l6.8,6.8l22.6,6.8l20.3-6.8l22.6-6.8l20.3,2.3l22.6,2.3h22.6l20.3-2.3h22.6
			l20.3,2.3l22.6,6.8l22.6,13.8l20.3-2.3l22.6-13.8l22.6-4.5l20.3,9.3l22.6,13.8l15.8,4.5l4.5,2.3l22.6,4.5l22.6,2.3h20.3l22.6-4.5
			l6.8-4.5l13.6-13.8l18.1-18.3l4.5-4.5l22.6-4.5l18.1,9.3l2.3,4.5l15.8,27.6l6.8,4.5l20.3,13.8l22.6,6.8h22.6l20.3,2.3l22.6,4.5
			l22.6,11.5l9,20.6l-9,22.8l-6.8,9.3l-15.8,13.8l-13.6,18.3l-9,13.8l-11.3,18.3l-6.8,32.1l-2.3,4.5l-15.8,27.6l-6.8,32.1l22.6,16
			l20.3,13.8l15.8,34.3l-15.8,27.6l-2.3,4.5l-18.1,20.6l-9,11.5l-13.6,18.3l-6.8,13.8l-15.8,27.6l-2.3,4.5l-18.1,16l-20.3,16
			l-20.3,29.8l-2.3,11.5l-9,20.6l-13.6,13.8l-22.6,11.5l-20.3,2.3l-22.6,4.5l-20.3-2.3l-9,2.3l-13.6,6.8l-22.6,25.3l-20.3,13.8
			l-22.6-6.8l-4.5-6.8l-15.8-11.5l-22.6-16l-11.3-4.5l-11.3-2.3l-20.3,18.3l-22.6,16l-22.6,18.3l-20.3,9.3l-22.6,2.3l-20.3-4.5
			l-22.6-6.8l-22.6,4.5l-6.8,9.3l-13.6,18.3l-22.6,13.8l-20.3,16l-22.6,16l-18.1,32.1l15.8,32.1"/>
		<path class="st0" d="M750.3-51.3l15.8-2.3l4.5-4.5l9-27.6l4.5-32.1l4.5-32.1l4.5-18.3l2.3-13.8l2.3-32.1l18.1-20.6l20.3-9.3
			l4.5-2.3l9-32.1l4.5-32.1l4.5-6.8l22.6-13.8l20.3-6.8l6.8-4.5l9-32.1l6.8-18.3l4.5-13.8l15.8-16l18.1-16l4.5-6.8l22.6-18.3
			l11.3-6.8l9-6.8l22.6,2.3l20.3,2.3l22.6-4.5l22.6-6.8l20.3-4.5h22.6l15.8,18.3l4.5,20.6l4.5,11.5l13.6,32.1l4.5,11.5l11.3,20.6
			l11.3,9.3l20.3,16l11.3,6.8l11.3,6.8l22.6-2.3l2.3-4.5l9-32.1l9-20.6l4.5-11.5l18.1-32.1l20.3-18.3l20.3-13.8l2.3-4.5l15.8-27.6
			l6.8-18.3l6.8-13.8l13.6-16l22.6-4.5l20.3,16l6.8,4.5l15.8,9.3l22.6,4.5l20.3,11.5l4.5,6.8l15.8,32.1h11.3l13.6-2.3l20.3-6.8
			l22.6-4.5l11.3,13.8l9,9.3l22.6,2.3l20.3-11.5l22.6-18.3l11.3-13.8l11.3-18.3l11.3-13.8l9-13.8l22.6,6.8l4.5,6.8l18.1,18.3
			l11.3,13.8l9,13.8l22.6-2.3l15.8-11.5l4.5-6.8l22.6-22.8l22.6-16l20.3,9.3l6.8,4.5l15.8,9.3h22.6l20.3-4.5h22.6l20.3-4.5l22.6-2.3
			l22.6,2.3l20.3-2.3l22.6-2.3l20.3,2.3l9,2.3l13.6,6.8l22.6,13.8h20.3l22.6-9.3l22.6,2.3l20.3,9.3l22.6,6.8l9,2.3l11.3,4.5
			l22.6,2.3h22.6l20.3-2.3h22.6l20.3-4.5h22.6l22.6,4.5l20.3,6.8l22.6,4.5l20.3,9.3l22.6,6.8l22.6,9.3l11.3,22.8l-11.3,18.3
			l-6.8,13.8l-13.6,32.1l-2.3,11.5l-4.5,20.6l-18.1,25.3l-4.5,6.8l-15.8,22.8l-9,9.3l9,13.8l18.1,18.3l2.3,9.3l6.8,22.8l-6.8,6.8
			l-20.3,25.3l-22.6,27.6l-15.8,36.6l-4.5,4.5L2423.9-85l-18.1,32.1l-6.8,16l-9,13.8l-11.3,6.8h-22.6h-20.3l-22.6,13.8l-22.6,9.3
			l-9,2.3l-11.3,6.8l-22.6,2.3l-13.6-9.3l-6.8-4.5l-22.6-16l-22.6,4.5l-11.3,16l-9,9.3l-22.6,22.8l-22.6,9.3l-20.3,6.8l-22.6,9.3
			l-20.3,2.3l-22.6-6.8l-22.6-6.8l-9,18.3L1988,86.9l-22.6,16l-18.1,2.3l-24.8,20.6l-22.6,11.5l-20.3,4.5l-22.6,25.3l-4.5,34.3
			l4.5,20.6l6.8,11.5"/>
		<path class="st0" d="M750.3-33l20.3-6.8l22.6-11.5l2.3-34.3l2.3-32.1l4.5-32.1l4.5-32.1l4.5-32.1l4.5-4.5l20.3-13.8l22.6-13.8
			l4.5-32.1l11.3-32.1l6.8-4.5l20.3-9.3l22.6-13.8l6.8-4.5v-31.8l11.3-32.1l24.8-22.8l11.3-9.3l11.3-9.3l20.3-4.5l22.6,4.5l20.3-2.3
			l22.6-9.3l22.6-9.3l9-2.3l11.3-2.3l11.3,2.3l11.3,4.5l9,27.6l11.3,29.8l15.8,34.3l6.8,9.3l22.6,16l9,6.8l11.3,9.3l22.6,11.5
			l22.6,2.3l15.8-22.8l4.5-16l4.5-16l13.6-32.1l4.5-6.8l11.3-25.3l9-6.8l22.6-16l9-9.3l13.6-22.8l4.5-9.3l15.8-29.8l15.8-2.3h6.8
			l20.3,13.8l22.6,9.3l22.6,4.5l4.5,4.5l13.6,32.1l2.3,6.8l22.6,6.8l22.6-4.5l20.3-4.5l22.6,2.3l20.3,22.8l22.6-2.3l22.6-13.8
			l18.1-13.8l24.8-29.8l20.3-22.8l22.6,2.3l18.1,18.3l4.5,6.8l20.3,25.3l22.6-6.8l20.3-13.8l13.6-11.5l9-9.3l22.6-16l20.3,9.3
			l22.6,9.3l22.6-2.3l20.3-4.5l22.6-2.3l20.3-2.3l22.6-2.3h22.6h20.3l22.6-4.5l20.3,2.3l22.6,11.5l20.3,11.5l22.6,4.5l13.6-4.5
			l9-4.5l13.6,4.5l9,2.3l20.3,6.8l22.6,6.8l20.3,4.5l22.6,2.3h22.6l20.3-2.3h22.6h20.3l22.6,6.8l22.6-4.5l20.3,4.5l13.6,4.5l9,4.5
			l20.3,9.3l22.6,11.5l9,6.8l-9,22.8l-2.3,9.3l-13.6,32.1l-4.5,32.1l-22.6,22.8l-9,9.3l-13.6,13.8l-20.3,18.3l18.1,32.1l2.3,32.1
			l-13.6,32.1l-6.8,20.6l-4.5,11.5l-18.1,27.6l-4.5,4.5l-18.1,16l-9,16l-11.3,22.8l-22.6,4.5l-20.3,2.3l-22.6,27.6l-4.5,4.5
			l-18.1,11.5L2270.3-8h-22.6l-20.3-11.5l-4.5-4.5l-18.1-11.5l-22.6-2.3l-20.3,4.5l-4.5,9.3l-13.6,32.1l-4.5,4.5l-22.6,13.8
			l-20.3,2.3l-20.3,11.5l-22.6,9.3l-22.6-6.8l-4.5-2.3l-18.1-9.3l-20.3,4.5l-4.5,4.5l-2.3,32.1l-15.8,11.5l-20.3,4.5l-22.6,6.8
			l-22.6,9.3l-20.3,16l-22.6,11.5l-4.5,4.5l-13.6,32.1l-4.5,22.8v9.3l-2.3,32.1"/>
		<path class="st0" d="M750.3-14.7l15.8-9.3l4.5-2.3l22.6-4.5l18.1-22.8l-4.5-32.1l2.3-32.1l4.5-32.1l2.3-16v-16l13.6-32.1l6.8-4.5
			l22.6-11.5l15.8-16l4.5-32.1l2.3-4.5l20.3-27.6l22.6-11.5l20.3-18.3l4.5-2.3l-4.5-25.3v-6.8l15.8-32.1l6.8-6.8l22.6-16h20.3
			l22.6,4.5l20.3-4.5l20.3-9.3l24.8-9.3l20.3-2.3l13.6,11.5l9,13.8l6.8,18.3l13.6,29.8l22.6,32.1l4.5,2.3l18.1,11.5l20.3,16
			l13.6,4.5l9,2.3l22.6,6.8l20.3-9.3l9-32.1l6.8-32.1l6.8-13.8l6.8-18.3l13.6-27.6l4.5-4.5l18.1-11.5l22.6-20.6l20.3-32.1l22.6-9.3
			l20.3,6.8l9,2.3l13.6,4.5l22.6,13.8l6.8,13.8l13.6,29.8l22.6-2.3l22.6-6.8l20.3-4.5l22.6,6.8l6.8,9.3l13.6,13.8l22.6-2.3
			l15.8-11.5l6.8-4.5l20.3-16l13.6-11.5l9-11.5l20.3-18.3h22.6l20.3,29.8l22.6,18.3l22.6-9.3l11.3-9.3l9-6.8l22.6-16l15.8-9.3
			l6.8-2.3l6.8,2.3l13.6,4.5l22.6,2.3l22.6-4.5l18.1-2.3l24.8-2.3l20.3-2.3l22.6-2.3h22.6l20.3-2.3l22.6-4.5l20.3,2.3l22.6,11.5
			l22.6,16l20.3,4.5l22.6-6.8l22.6,2.3l20.3,9.3l18.1,6.8l4.5,2.3l20.3,4.5h22.6l22.6-2.3l20.3-2.3l22.6,2.3l20.3,6.8l22.6,4.5
			l22.6-2.3l20.3,6.8l22.6,9.3l6.8,2.3l9,32.1l-13.6,32.1l-2.3,32.1l-22.6,16l-15.8,16l-4.5,4.5l-22.6,6.8l-13.6,20.6l13.6,27.6
			l4.5,4.5l9,32.1l-11.3,32.1l-18.1,32.1l-6.8,6.8l-18.1,25.3l-24.8,29.8l-20.3,9.3l-22.6,11.5l-9,13.8l-13.6,16l-20.3,9.3h-22.6
			l-20.3-13.8L2207.1-54l-24.8-11.5l-20.3-6.8L2143.8-54l-4.5,9.3l-13.6,20.6l-9,13.8l-20.3,11.5l-22.6-4.5l-18.1,11.5l-2.3,4.5
			l-22.6,2.3l-18.1-6.8h-11.3l-13.6,4.5l-22.6,25.3l-20.3,27.6l-11.3,6.8l-11.3,4.5l-22.6,9.3l-20.3,13.8l-9,4.5l-13.6,9.3
			l-22.6,22.8l-11.3,32.1l-4.5,32.1l-4.5,32.1"/>
		<path class="st0" d="M750.3-1l20.3-9.3l22.6-4.5l22.6-2.3l9-6.8l-2.3-29.8l-2.3-32.1l2.3-32.1l2.3-32.1l4.5-32.1l6.8-16l22.6-13.8
			l6.8-2.3l15.8-13.8l13.6-18.3l4.5-32.1l2.3-4.5l22.6-20.6l11.3-6.8l9-4.5l22.6-27.6l-6.8-32.1l6.8-13.8l15.8-18.3l6.8-4.5
			l20.3,2.3l22.6,2.3l20.3-4.5l22.6-4.5l22.6-6.8l20.3,6.8l6.8,9.3l15.8,22.8l4.5,9.3l9,32.1l6.8,6.8l22.6,11.5l22.6,11.5l20.3,16
			l22.6,6.8l22.6,4.5l20.3-2.3l20.3-22.8l2.3-25.3v-6.8l9-32.1l9-32.1l2.3-4.5l22.6-27.6l22.6-18.3l13.6-13.8l6.8-13.8l22.6-9.3
			l20.3,2.3l22.6,6.8l13.6,13.8l9,18.3l4.5,13.8l15.8,11.5l22.6-2.3l22.6-9.3l20.3-2.3l6.8,2.3l15.8,9.3l20.3,18.3l22.6-2.3
			l22.6-13.8l13.6-11.5l6.8-6.8l22.6-18.3l9-6.8l11.3-9.3l22.6,6.8l22.6,29.8l9,4.5l11.3,4.5l9-4.5l13.6-9.3l20.3-13.8l15.8-9.3
			l6.8-6.8l22.6-9.3l20.3,4.5h22.6l22.6-4.5l20.3-2.3l22.6-2.3l20.3-2.3l22.6-2.3l22.6-2.3l20.3-2.3l13.6-2.3l9-2.3l13.6,2.3
			l6.8,2.3l22.6,11.5l22.6,16l4.5,2.3l15.8,4.5l18.1-4.5l4.5-2.3l22.6,2.3l20.3,9.3l22.6,6.8l20.3,4.5h22.6l22.6-2.3h20.3l22.6,4.5
			l18.1,9.3l24.8,6.8l22.6,2.3l20.3,22.8l-4.5,32.1l-9,32.1l-6.8,4.5l-22.6,9.3l-22.6,4.5l-15.8,13.8l2.3,32.1l6.8,32.1l6.8,32.1
			l-9,32.1l-11.3,18.3l-9,13.8l-13.6,18.3l-6.8,13.8l-13.6,11.5l-22.6,9.3l-13.6,11.5l-9,9.3l-15.8,22.8l-4.5,2.3h-22.6l-6.8-2.3
			l-13.6-13.8l-22.6-16l-9-2.3l-13.6-4.5l-20.3-6.8l-20.3,11.5l-18.1,32.1l-6.8,6.8l-20.3,13.8l-22.6-6.8l-20.3,2.3l-20.3,13.8
			l-24.8,13.8L1988-5l-22.6,9.3l-13.6,4.5l-6.8,11.5l-9,20.6l-13.6,16l-22.6,13.8l-9,2.3l-11.3,6.8L1857,93.4l-9,11.5l-13.6,13.8
			l-11.3,18.3l-9,22.8l-4.5,9.3l-13.6,32.1l-4.5,20.6l-2.3,11.5"/>
		<path class="st0" d="M750.3,38.1l20.3-18.3l22.6-6.8h22.6l20.3,2.3l22.6-2.3l4.5-4.5l-4.5-13.8l-2.3-18.3l-11.3-29.8l2.3-32.1
			l6.8-32.1l-2.3-32.1l6.8-22.8l6.8-9.3l15.8-9.3h20.3l22.6-2.3l11.3-20.6l2.3-32.1l6.8-16l11.3-16l11.3-9.3l20.3-22.8l22.6-25.3
			l15.8-6.8l6.8-4.5l20.3-11.5l22.6-2.3l22.6,6.8l6.8,11.5l13.6,29.8l22.6,25.3l9,9.3l11.3,6.8l22.6,13.8l22.6,6.8h20.3l22.6-6.8
			h22.6h20.3l22.6-4.5l18.1-16l2.3-9.3l11.3-22.8l4.5-32.1l6.8-32.1l4.5-32.1l18.1-22.8l6.8-9.3l13.6-13.8l22.6-13.8l20.3,4.5
			l22.6,18.3l2.3,4.5l18.1,32.1l22.6,6.8l22.6-4.5l9-2.3l13.6-4.5h20.3l4.5,4.5l18.1,13.8l20.3,4.5l22.6-2.3l22.6-4.5l13.6-11.5
			l6.8-6.8l22.6-18.3l11.3-6.8l9-6.8l13.6,6.8l9,4.5l22.6,20.6l20.3,4.5l22.6-11.5l20.3-13.8l6.8-4.5l15.8-9.3l22.6-6.8l20.3-2.3
			h22.6l22.6-2.3l20.3-4.5l22.6-2.3l20.3-2.3l22.6-2.3l22.6-4.5h20.3l22.6-4.5l20.3,4.5l6.8,4.5l15.8,11.5l22.6,13.8l20.3,2.3h22.6
			l15.8,4.5l6.8,2.3l20.3,6.8l22.6,6.8l20.3,6.8h22.6l22.6,4.5l15.8,4.5l4.5,32.1l-20.3,25.3l-4.5,6.8l-4.5,32.1l4.5,32.1l-4.5,32.1
			l-13.6,22.8l-9,9.3l-2.3,32.1l-9,32.1l-22.6,13.8l-22.6,2.3h-20.3l-22.6-2.3l-22.6-6.8l-20.3-6.8h-11.3l-11.3-2.3l-22.6-4.5
			l-6.8,6.8l-13.6,25.3l-22.6,2.3l-6.8,4.5l-13.6,6.8l-22.6,25.3l-22.6,22.8l-9,9.3l-11.3,6.8l-22.6,9.3l-13.6,13.8l-6.8,4.5
			l-22.6,4.5L1909,8.3l-9,27.6l-4.5,4.5l-15.8,6.8l-22.6,6.8l-20.3,18.3l-22.6,29.8l-18.1,34.3l-4.5,6.8l-13.6,25.3l-6.8,11.5
			l-15.8,20.6l-6.8,27.6v4.5"/>
		<path class="st0" d="M750.3,58.7l15.8-18.3l4.5-4.5l22.6-6.8l22.6-2.3l20.3,2.3h22.6l22.6-16l2.3-4.5l-2.3-6.8L870-23.6
			l-11.3-29.8v-6.8l4.5-25.3l13.6-32.1l-2.3-32.1l6.8-9.3h20.3l22.6-4.5l20.3-6.8l18.1-11.5v-32.1l4.5-16l4.5-16l15.8-32.1
			l22.6-25.3l11.3-6.8l11.3-6.8l20.3-13.8l22.6-2.3l18.1,22.8l4.5,4.5l15.8,27.6l4.5,4.5l22.6,16l13.6,11.5l6.8,4.5l22.6,13.8
			l22.6,4.5l20.3-2.3l22.6-13.8l22.6-6.8l20.3,2.3l22.6-2.3l20.3-9.3l20.3-22.8l11.3-32.1l4.5-32.1l2.3-32.1l4.5-32.1l22.6-32.1
			l22.6-13.8l20.3,6.8l9,6.8l13.6,22.8l4.5,9.3l18.1,18.3l20.3,2.3l22.6-4.5l22.6-4.5l20.3,4.5l20.3,16h6.8l15.8-2.3l22.6-4.5
			l22.6-2.3l20.3-13.8l11.3-9.3l11.3-9.3l20.3-11.5l22.6,9.3l13.6,11.5l9,6.8l20.3,4.5l20.3-11.5l22.6-16l22.6-11.5l11.3-4.5
			l11.3-4.5h20.3h22.6l22.6-2.3l20.3-4.5l22.6-4.5l20.3-2.3l22.6-2.3l22.6-2.3l20.3-2.3l22.6-2.3l20.3,9.3l22.6,16l4.5,2.3l18.1,9.3
			l20.3,2.3h22.6l22.6,6.8l20.3,6.8l18.1,6.8l4.5,2.3l20.3,16l20.3,13.8l-6.8,32.1l-4.5,32.1v32.1l-9,16l-9,16l-11.3,22.8l-4.5,9.3
			l-13.6,32.1l-4.5,2.3l-20.3,9.3h-22.6l-22.6-6.8l-15.8-4.5l-4.5-2.3l-22.6-2.3l-22.6,2.3l-20.3,16l-22.6,16l-20.3,13.8l-18.1,20.6
			l-4.5,4.5l-22.6,20.6l-4.5,6.8L1988-71.9l-22.6,9.3l-11.3,9.3l-9,9.3l-22.6,6.8l-22.6,6.8l-6.8,6.8l2.3,32.1l-15.8,20.6l-22.6,9.3
			l-4.5,2.3l-18.1,13.8l-15.8,18.3l-4.5,9.3l-22.6,16l-13.6,6.8l-4.5,32.1l-2.3,9.3l-9,22.8l-13.6,20.6l-6.8,11.5l-6.8,32.1"/>
		<path class="st0" d="M750.3,77l4.5-4.5l15.8-18.3l22.6-6.8l22.6-4.5h20.3l22.6,2.3l4.5-4.5l18.1-9.3l20.3-22.8l-13.6-32.1
			l-6.8-13.8l-9-16l9-25.3l2.3-6.8l18.1-22.8l22.6-9.3l20.3-25.3l22.6-6.8l20.3-32.1v-32.1l2.3-4.5l11.3-27.6l9-13.8l18.1-18.3
			l4.5-4.5l20.3-18.3l22.6,4.5l13.6,18.3l9,6.8l20.3,16l9,9.3L1141-232l18.1,18.3l24.8,9.3l22.6,2.3h20.3l22.6-11.5l22.6-16h20.3
			l22.6-2.3l20.3-4.5l15.8-9.3l6.8-9.3l15.8-22.8l6.8-18.3l4.5-13.8l4.5-32.1l2.3-32.1l4.5-32.1l4.5-4.5l22.6-20.6l20.3,13.8
			l6.8,11.5l15.8,20.6l13.6,11.5l9,4.5l20.3-2.3l6.8-2.3l15.8-2.3l22.6-2.3l9,4.5l11.3,6.8l22.6,9.3l20.3-6.8l22.6-4.5h22.6l9-4.5
			l11.3-6.8l22.6-20.6l11.3-4.5l9-4.5l11.3,4.5l11.3,4.5l22.6,16l20.3,2.3l22.6-11.5l18.1-11.5l24.8-13.8l22.6-9.3h20.3h22.6
			l22.6-2.3l20.3-6.8l22.6-4.5l20.3-2.3l22.6-2.3l22.6-2.3h20.3h22.6l20.3,9.3l22.6,13.8l22.6,13.8l20.3,4.5h22.6l9,2.3l13.6,2.3
			l20.3,9.3l22.6,18.3l6.8,34.3l-6.8,18.3l-9,13.8l-9,32.1l-4.5,4.5l-9,27.6l-11.3,27.6l-22.6,4.5l-22.6-2.3l-20.3,2.3l-22.6,6.8
			l-22.6,4.5l-20.3,11.5l-15.8,9.3l-6.8,4.5l-20.3,9.3l-15.8,18.3l-6.8,6.8l-18.1,25.3l-4.5,2.3L1988-94l-18.1,9.3l-4.5,2.3
			L1945.1-71l-22.6,13.8l-4.5,4.5l-18.1,4.5l-20.3,25.3V9.2l-22.6,16l-22.6,11.5l-4.5,4.5l-15.8,18.3l-20.3,13.8l-22.6,11.5
			l-22.6,4.5l-13.6,16l13.6,25.3l2.3,6.8l-2.3,13.8l-2.3,18.3l-20.3,32.1l-9,32.1"/>
		<path class="st0" d="M750.3,97.5L770.6,77l4.5-4.5l18.1-9.3l22.6-4.5h20.3l22.6,2.3l22.6-11.5l9-9.3l11.3-11.5l22.6-20.6L910.7-24
			l-9-13.8l-9-16l9-22.8l15.8-9.3l6.8-4.5l20.3-11.5l22.6-16l22.6-16l20.3-16v-9.3l-2.3-22.8v-32.1l2.3-6.8l18.1-25.3l4.5-4.5
			l20.3-16h22.6l22.6,16l6.8,4.5l13.6,11.5l18.1,20.6l4.5,2.3l20.3,16l22.6,4.5l22.6,6.8l20.3,2.3l22.6-11.5l22.6-18.3l4.5-2.3
			l15.8-4.5h22.6h20.3l22.6-13.8l11.3-13.8l11.3-16l9-16l11.3-27.6l4.5-4.5l4.5-32.1l6.8-32.1l6.8-11.5l20.3,4.5l4.5,6.8l18.1,13.8
			l22.6,13.8l20.3-9.3l22.6-4.5h22.6l20.3,16h22.6l20.3-9.3l22.6-2.3h22.6l20.3-11.5l9-6.8l13.6-11.5l20.3-9.3l22.6,9.3l15.8,11.5
			l6.8,4.5h20.3l6.8-4.5l15.8-9.3l20.3-13.8l22.6-9.3l22.6-6.8l20.3-2.3l22.6,2.3l22.6-2.3l20.3-9.3l22.6-4.5l20.3-4.5l22.6-2.3
			h22.6h20.3l22.6,2.3l20.3,11.5l22.6,11.5l9,4.5l13.6,9.3l20.3,9.3l22.6,2.3l22.6,4.5l13.6,6.8l-4.5,32.1l-9,16l-9,16l-11.3,32.1
			l-24.8,13.8l-20.3,16l-22.6,16l-22.6,11.5l-13.6,6.8l-6.8,2.3l-22.6,11.5l-20.3,6.8l-22.6,9.3l-20.3,34.3l-22.6,32.1l-22.6,11.5
			l-20.3,9.3l-22.6,4.5l-4.5,6.8l-18.1,13.8l-20.3,16L1866-24.5l-9,29.8l-22.6,16l-20.3,16l-4.5,2.3l-18.1,13.8l-20.3,6.8l-22.6-4.5
			l-22.6,6.8l-13.6,9.3l-4.5,32.1l18.1,25.3l4.5,6.8l-2.3,32.1l-2.3,4.5l-18.1,27.6l-2.3,9.3l-13.6,22.8"/>
		<path class="st0" d="M750.3,145.6l11.3-9.3l9-11.5l22.6-20.6l22.6-9.3l20.3-2.3l22.6,2.3l22.6-9.3L894.9,72l6.8-4.5l22.6-11.5
			l20.3-11.5l6.8-4.5l2.3-32.1l-9-22.8l-2.3-9.3l2.3-18.3l4.5-11.5l18.1-11.5l22.6-16l6.8-4.5l13.6-16l22.6-16l20.3-16l20.3-16
			l2.3-32.1l22.6-6.8l20.3,4.5l22.6,18.3l20.3,6.8l22.6,4.5h22.6l20.3-2.3l22.6-2.3l22.6-9.3l20.3-9.3l22.6-4.5l20.3-6.8l22.6-6.8
			l22.6-16l20.3-27.6l4.5-6.8l15.8-32.1l2.3-4.5l20.3-27.6l22.6-6.8l22.6,4.5l20.3-9.3l22.6-6.8l22.6,2.3l20.3,11.5h22.6l20.3-9.3
			l22.6-6.8l22.6,2.3l20.3-9.3l11.3-4.5l11.3-9.3l20.3-9.3l22.6,9.3l13.6,9.3l9,4.5l20.3,2.3l9-6.8l13.6-9.3l20.3-20.6l4.5-2.3
			l18.1-6.8l22.6-4.5h20.3l22.6,4.5l22.6-2.3l20.3-9.3l22.6-9.3l11.3-4.5l9-2.3l22.6-4.5h22.6l20.3,4.5l4.5,2.3l18.1,18.3l11.3,13.8
			l9,16l13.6,16l2.3,32.1l-15.8,27.6l-20.3,22.8l-18.1,13.8l-4.5,2.3l-20.3,2.3l-22.6,2.3l-22.6,4.5l-20.3,13.8l-4.5,6.8l-11.3,32.1
			l-6.8,9.3l-20.3,20.6l-9,2.3l-13.6,2.3l-22.6,6.8l-20.3,22.8l-22.6,4.5h-22.6l-13.6,27.6l11.3,32.1l-9,29.8l-9,9.3l-22.6,13.8
			l-20.3,6.8l-22.6-4.5L1726-1.6l-4.5,9.3l-15.8,32.1l-22.6,13.8l-20.3,4.5l-18.1,13.8l-4.5,16l-6.8,16l6.8,16l18.1,16l4.5,4.5
			l18.1,27.6l-18.1,25.3l-4.5,6.8l-18.1,29.8l-4.5,2.3"/>
		<path class="st0" d="M1321.7,232.6l-6.8-4.5l-22.6-9.3l-20.3,4.5l-6.8,9.3"/>
		<path class="st0" d="M1477.6,232.6l-11.3-4.5l-18.1,4.5"/>
		<path class="st0" d="M750.3,168.4l20.3-18.3l13.6-13.8l9-9.3l22.6-9.3l20.3-4.5l22.6,2.3l22.6-9.3L901.6,88l22.6-13.8l20.3-11.5
			l22.6-16l6.8-6.8l-4.5-32.1l-2.3-9.3l-9-22.8l9-16L982.9-54l6.8-4.5l20.3-16l11.3-11.5l11.3-9.3l20.3-13.8l22.6-6.8l11.3-2.3
			l11.3-6.8l20.3-9.3h22.6h20.3h22.6l22.6-2.3l20.3-4.5l22.6-2.3l22.6-4.5l6.8-2.3l13.6-4.5l22.6-6.8l20.3-6.8l22.6-9.3l11.3-4.5
			l11.3-4.5l20.3-20.6l6.8-6.8l15.8-29.8l15.8-34.3l4.5-6.8l22.6-11.5h22.6l20.3-6.8l13.6-6.8l9-4.5l22.6,4.5l20.3,11.5l22.6,2.3
			l20.3-11.5l9-2.3l13.6-4.5l22.6-2.3l20.3-6.8l22.6-11.5l20.3-4.5l22.6,6.8l22.6,11.5l20.3,2.3l22.6-11.5l9-11.5l11.3-11.5
			l22.6-11.5l22.6-4.5l20.3,2.3l22.6,6.8l22.6-4.5l20.3-4.5l6.8-4.5l15.8-6.8l20.3-6.8l22.6-4.5l22.6,6.8l15.8,11.5l4.5,6.8
			l22.6,25.3l-2.3,32.1l-18.1,32.1l-22.6,9.3l-22.6,2.3l-22.6,2.3l-20.3,6.8l-9,11.5l-13.6,13.8l-11.3,18.3l-9,16l-20.3,16
			l-24.8,6.8l-20.3,6.8l-22.6,13.8l-22.6,2.3l-20.3,18.3l-15.8,16l-6.8,9.3l-18.1,22.8l13.6,32.1l-15.8,11.5l-22.6-9.3L1726-39.4
			l-11.3,16l-9,18.3l-9,13.8l-13.6,20.6l-20.3,9.3l-6.8,2.3l-15.8,11.5l-20.3,20.6l-2.3,4.5l-4.5,27.6V137l-15.8,29.8l-2.3,34.3
			l-13.6,32.1"/>
		<path class="st0" d="M1513.7,232.6l-4.5-6.8l-20.3-20.6l-22.6-2.3l-22.6,11.5l-20.3,9.3l-22.6-2.3l-20.3,4.5l-22.6,2.3l-22.6-6.8
			l-20.3-13.8l-13.6-6.8l-9-2.3l-20.3-4.5l-9,6.8l-13.6,18.3l-9,13.8"/>
		<path class="st0" d="M750.3,193.7l20.3-20.6l4.5-4.5l18.1-16l22.6-16l20.3-2.3h22.6l22.6-9.3l20.3-13.8l13.6-6.8l9-4.5l20.3-16
			l13.6-11.5l9-4.5l22.6-18.3l6.8-9.3l-6.8-18.3l-4.5-13.8l-6.8-32.1l11.3-9.3l20.3-13.8l15.8-6.8l6.8-6.8l20.3-25.3l22.6-6.8
			l22.6-2.3l20.3-4.5l22.6-2.3l20.3-2.3l22.6-4.5l22.6-9.3l20.3-6.8l22.6-2.3h22.6l20.3-2.3l22.6-6.8l20.3-9.3l11.3-4.5l11.3-4.5
			l22.6-11.5l20.3-13.8l4.5-2.3l18.1-20.6l4.5-11.5l15.8-32.1l22.6-27.6l18.1-4.5l4.5-2.3l20.3-2.3l22.6-6.8h22.6l20.3,6.8l22.6,4.5
			l20.3-13.8l22.6-9.3l22.6-2.3l20.3-6.8l22.6-9.3l20.3-4.5l22.6,6.8l13.6,6.8l9,4.5l20.3,2.3l22.6-2.3l6.8-4.5l13.6-16l22.6-16
			l22.6-2.3l9,2.3l11.3,4.5l22.6,2.3l22.6-2.3l20.3-4.5l22.6-9.3l20.3-4.5l22.6,6.8l6.8,6.8l-6.8,11.5l-18.1,20.6l-4.5,2.3
			l-20.3,6.8l-22.6,16l-2.3,6.8l-18.1,29.8l-22.6,27.6l-6.8,6.8l-15.8,6.8l-20.3-2.3l-22.6,4.5l-22.6,13.8l-18.1,9.3l-13.6,32.1
			l-11.3,9.3l-20.3,18.3l-9,4.5l-13.6,11.5l-20.3,20.6l-20.3,32.1L1689.9-24l-6.8,11.5l-20.3,20.6l-22.6,18.3l-22.6,13.8l-18.1,32.1
			l-2.3,9.3l-6.8,22.8l-15.8,29.8l-20.3,34.3l-22.6,9.3l-22.6,4.5l-20.3-4.5l-22.6,4.5l-22.6,11.5l-13.6,6.8l-6.8,2.3l-22.6,2.3
			h-20.3h-22.6l-9-4.5l-13.6-4.5l-20.3-9.3l-22.6-9.3l-20.3-9.3l-22.6,9.3l-13.6,22.8l-9,11.5l-13.6,20.6"/>
		<path class="st0" d="M750.3,216.5l18.1-16l24.8-22.8l9-9.3l13.6-11.5l20.3-6.8h22.6l22.6-6.8l13.6-6.8l6.8-4.5l22.6-4.5l20.3-13.8
			l6.8-9.3l15.8-13.8L989.7,77l4.5-4.5l15.8-18.3l6.8-13.8l-6.8-16l-4.5-16l2.3-32.1l24.8-11.5l20.3-13.8l9-4.5l13.6-11.5l22.6-6.8
			l20.3-2.3h22.6l20.3-2.3l22.6-6.8l4.5-2.3l18.1-11.5l20.3-9.3l22.6-2.3l22.6,4.5l20.3,2.3l22.6-4.5l20.3-9.3l6.8-2.3l15.8-9.3
			l22.6-16l9-6.8l11.3-6.8l22.6-16l11.3-9.3l9-22.8l4.5-9.3l18.1-32.1l22.6-13.8l20.3-4.5l22.6-4.5l22.6-2.3l20.3,2.3l22.6,4.5
			l20.3-9.3l9-4.5l13.6-9.3l22.6-4.5l20.3-4.5l22.6-6.8l20.3-2.3l22.6,6.8l22.6,9.3l20.3,4.5l22.6-2.3l20.3-9.3l20.3-13.8l2.3-4.5
			h22.6l20.3,4.5l22.6,32.1l-22.6,20.6l-20.3,11.5l-22.6,9.3l-22.6,11.5l-18.1,11.5l-24.8,22.8l-2.3,9.3l-13.6,32.1l-4.5,4.5
			l-22.6,11.5l-20.3,16l-22.6,25.3l-4.5,6.8l-13.6,32.1l-4.5,6.8l-20.3,22.8l-22.6,25.3l-6.8,6.8l-15.8,11.5l-20.3,20.6l-22.6,32.1
			l-20.3,32.1l-22.6,18.3l-13.6,13.8l-9,6.8l-20.3,6.8l-22.6,9.3l-22.6,9.3l-20.3,9.3l-22.6,4.5h-20.3h-22.6l-22.6-6.8l-11.3-6.8
			l-9-6.8l-22.6-9.3l-20.3-9.3l-11.3-6.8l-11.3-6.8l-13.6,6.8l-9,32.1l-20.3,25.3l-6.8,6.8l-9,32.1"/>
		<path class="st0" d="M784.2,232.6l9-9.3l22.6-22.8l20.3-11.5l22.6-4.5l22.6,2.3l20.3-2.3l22.6-6.8l20.3-2.3l22.6-2.3l11.3-4.5
			l11.3-9.3l15.8-22.8l4.5-6.8l22.6-18.3l9-6.8l11.3-16l6.8-16l-2.3-32.1V8.5L1075.5-3l22.6-13.8l6.8-6.8l13.6-4.5l22.6-4.5
			l20.3-2.3l22.6-2.3l22.6-9.3l13.6-6.8l6.8-4.5l22.6-9.3h22.6l20.3,2.3h22.6l20.3-9.3l22.6-4.5l22.6-4.5l6.8-2.3l13.6-13.8
			l22.6-13.8l9-4.5l11.3-11.5l22.6-18.3l4.5-2.3l9-32.1l9-18.3l18.1-13.8l24.8-9.3l22.6-6.8l20.3-2.3h22.6l20.3-6.8l11.3-6.8
			l11.3-6.8l22.6-6.8l20.3-2.3l22.6-4.5l20.3,6.8l15.8,13.8l2.3,32.1l-9,32.1l-9,9.3l-13.6,22.8l-6.8,6.8l-22.6,20.6l-2.3,4.5
			l-18.1,25.3l-4.5,6.8l-18.1,18.3l-15.8,13.8l-6.8,6.8l-20.3,22.8L1574.7-5l-13.6,13.8l-6.8,11.5l-15.8,20.6l-6.8,9.3l-18.1,22.8
			l-4.5,4.5l-20.3,16l-22.6,11.5l-22.6,9.3l-20.3,4.5l-22.6,6.8l-20.3-2.3l-22.6-4.5l-22.6-11.5l-4.5-2.3l-15.8-4.5l-22.6-13.8
			l-18.1-13.8l-24.8-2.3l-22.6-2.3l-15.8,4.5l-4.5,4.5L1184,91.2l-20.3,13.8l-2.3,4.5l-11.3,27.6l-9,20.6l-6.8,11.5l-2.3,32.1
			l4.5,32.1"/>
		<path class="st0" d="M811.3,232.6l4.5-2.3l20.3-13.8l22.6-6.8l22.6,2.3h20.3l22.6-6.8l15.8-4.5l27.1-2.3h22.6l20.3-11.5l22.6-11.5
			l9-6.8l11.3-32.1l22.6-6.8h22.6l4.5,6.8l-4.5,16l-6.8,16l-4.5,32.1l11.3,32.1"/>
		<path class="st0" d="M1091.3,72.4l-6.8-32.1l13.6-13.8l13.6-18.3l6.8-4.5L1141-7.7h20.3L1184-10l22.6-6.8l11.3-6.8l9-2.3
			l22.6-13.8l22.6-9.3h20.3h22.6l18.1-4.5l24.8-6.8l22.6-4.5l20.3-11.5l18.1-9.3l4.5-2.3l20.3-16l22.6-11.5l4.5-2.3l18.1-18.3
			l18.1-13.8l2.3-9.3l13.6-22.8l9-6.8l22.6-11.5h20.3l22.6-2.3l20.3-11.5l22.6-9.3l22.6-16l20.3-2.3l22.6,6.8l4.5,20.6l-2.3,32.1
			l-24.8,32.1l-20.3,16l-11.3,16l-11.3,16l-13.6,16l-9,4.5l-20.3,16l-9,11.5l-13.6,9.3L1554.4-26l-4.5,2.3L1531.8-1l-9,9.3
			l-13.6,18.3l-11.3,13.8l-9,13.8l-22.6,13.8l-9,4.5l-13.6,9.3l-20.3,9.3l-22.6,6.8l-20.3-2.3l-22.6-6.8l-22.6-6.8l-18.1-9.3
			l-24.8-18.3l-20.3-9.3l-22.6-4.5h-22.6l-20.3-2.3l-6.8,2.3l-15.8,9.3l-22.6,13.8l-20.3,9.3l-22.6,22.8l-20.3-9.3L1091.3,72.4"/>
		<path class="st0" d="M906.1,232.6l18.1-4.5l20.3-2.3h22.6l22.6,2.3h20.3l22.6-2.3l11.3,6.8"/>
		<path class="st0" d="M1267.5-23.8l4.5-2.3l20.3-2.3l22.6-2.3l20.3-4.5l22.6-6.8l22.6-4.5l11.3-6.8l9-6.8l22.6-9.3l20.3-13.8
			l6.8-2.3l15.8-9.3l22.6-11.5l20.3-9.3l4.5-2.3l18.1-13.8l18.1-18.3l4.5-4.5l20.3-9.3h22.6l20.3-6.8l22.6,9.3l2.3,11.5l-24.8,22.8
			l-6.8,9.3l-13.6,6.8L1574.7-99l-6.8,13.8l-13.6,18.3l-9,13.8l-13.6,11.5l-20.3,18.3l-2.3,4.5l-20.3,20.6l-11.3,6.8l-11.3,13.8
			l-22.6,18.3l-20.3,18.3l-22.6,6.8l-20.3-2.3l-22.6-6.8l-22.6-16l-20.3-16l-22.6-9.3l-11.3-6.8l-9-16L1267.5-23.8"/>
		<path class="st0" d="M1348.8,8.3l2.3-32.1l6.8-2.3l22.6-2.3l20.3-6.8l22.6-9.3l6.8-9.3l13.6-6.8l22.6-4.5h22.6l6.8,11.5l-6.8,6.8
			l-20.3,22.8l-24.8,16L1423.4-1l-22.6,9.3l-20.3,11.5l-22.6-2.3L1348.8,8.3"/>
	</g>
	<g id="contours_major__x28_contours_x29_" inkscape:label="contours major (contours)" inkscape:groupmode="layer">
		<path class="st0" d="M3426.7,232.6l-6.8,9.3l-20.3,22.8l-22.6-4.5l-6.8,4.5l6.8,32.1l22.6,32.1"/>
		<path class="st0" d="M3051.8,232.6l-22.6,32.1v32.1l-20.3,16l-22.6,2.3l-22.6,9.3v4.5"/>
		<path class="st0" d="M2837.2,232.6l-2.3,32.1l-22.6,16l-18.1,16l-4.5,4.5l-18.1,27.6"/>
		<path class="st0" d="M2392.3,328.8l-13.6-27.6l-4.5-4.5l-18.1-6.8l-20.3-4.5l-22.6-11.5l-22.6,2.3l-20.3,4.5l-22.6-4.5l-20.3-11.5
			l-22.6-9.3l-22.6-2.3l-20.3,11.5l-22.6-2.3v18.3l2.3,16l20.3,27.6l4.5,4.5"/>
		<path class="st0" d="M2742.4,232.6l-15.8,32.1l-22.6-16l-22.6-11.5l-20.3,2.3l-22.6,22.8l-4.5,2.3l-15.8,13.8l-22.6,4.5l-22.6,4.5
			l-20.3-6.8l-22.6,6.8l-22.6-2.3l-20.3-4.5l-22.6-9.3l-20.3,11.5l-2.3,13.8l-6.8,32.1"/>
		<path class="st0" d="M2010.6,232.6l13.6,32.1l6.8,20.6l2.3,11.5l4.5,32.1"/>
		<path class="st0" d="M1895.4,232.6l4.5,9.3l9,22.8l-4.5,32.1l9,32.1"/>
		<path class="st0" d="M1412.1,328.8l-11.3-6.8l-20.3,4.5l-4.5,2.3"/>
		<path class="st0" d="M1764.4,232.6l-4.5,32.1l-11.3,29.8v6.8l6.8,27.6"/>
		<path class="st0" d="M1667.3,232.6l-4.5,20.6l-6.8,11.5l-13.6,32.1l-24.8,4.5l-15.8-4.5l-27.1-4.5h-20.3l-22.6-2.3h-22.6
			l-20.3-11.5l-18.1-13.8l-4.5-2.3l-22.6-9.3l-20.3-2.3h-22.6l-20.3,6.8l-22.6,4.5l-22.6-4.5l-20.3-11.5l-22.6-6.8l-20.3,11.5
			l-9,13.8l-4.5,32.1l13.6,16l9,16"/>
		<path class="st0" d="M750.3,239.6l6.8-6.8"/>
		<path class="st0" d="M1163.6,232.6l-2.3,9.3l-2.3,22.8l-9,32.1l-9,27.6l-2.3,4.5"/>
		<path class="st0" d="M809,328.8l6.8-4.5l20.3-16l22.6-11.5l22.6-4.5l20.3,2.3l22.6-2.3l20.3-2.3l22.6,4.5l4.5,2.3l18.1,13.8
			l6.8,18.3"/>
		<path class="st0" d="M2704-1173.2l22.6,4.5l9-4.5"/>
		<path class="st0" d="M2828.2-1173.2l6.8,2.3l20.3,4.5l22.6,2.3l22.6,22.8l20.3,27.6l2.3,4.5l20.3,18.3l15.8,11.5l4.5,4.5l22.6,9.3
			l22.6,18.3l20.3,20.6l11.3,11.5l11.3,16l11.3,16l9,32.1l22.6,6.8l22.6,4.5l20.3,4.5l22.6,2.3l20.3,2.3h22.6h22.6l20.3,2.3
			l22.6,9.3l22.6,20.6l4.5,11.5l15.8,11.5l22.6,13.8l15.8,6.8l4.5,2.3l22.6,6.8l22.6,9.3l18.1,13.8l24.8,13.8l15.8,18.3l4.5,11.5
			l11.3,20.6l-2.3,32.1l-4.5,32.1l-4.5,18.3l-2.3,13.8v32.1l2.3,32.1l11.3,32.1v32.1l-11.3,27.6l-20.3,29.8l-9,6.8l4.5,32.1l4.5,6.8
			l20.3,18.3l9,6.8l13.6,20.6l11.3,11.5l-4.5,32.1l15.8,20.6l4.5,11.5v32.1l15.8,22.8l9,9.3v32.1l-9,9.3l-20.3,6.8l-22.6,16v32.1
			l-4.5,32.1l-6.8,32.1l-11.3,32.1l-4.5,29.8l-15.8,25.3l-11.3,6.8v32.1l4.5,32.1l6.8,16l11.3,16l2.3,32.1l-13.6,32.1l-22.6,32.1
			l6.8,32.1"/>
		<path class="st0" d="M3526.1,8.3v-32.1l24.8-13.8l22.6-2.3l20.3,13.8l4.5,2.3l-4.5,16l-4.5,16l-15.8,11.5l-22.6,4.5l-22.6-11.5
			L3526.1,8.3"/>
		<path class="st0" d="M1093.6-1173.2l-13.6,32.1l-4.5,6.8l-9,25.3l-13.6,22.8l-2.3,6.8l-18.1,29.8l-22.6,29.8l-6.8,4.5l6.8,9.3
			l22.6-2.3l6.8-6.8l13.6-13.8l22.6-9.3l13.6-9.3l9-9.3l20.3-18.3l22.6,6.8l20.3,4.5l4.5-16l-2.3-29.8l4.5-32.1l15.8-32.1h2.3"/>
		<path class="st0" d="M1601.8-1173.2l-4.5,16l-11.3,16l11.3,9.3h20.3l22.6-2.3l22.6-4.5l20.3-25.3l9-9.3"/>
		<path class="st0" d="M2003.8-1173.2l4.5,32.1l22.6,2.3l4.5-2.3l18.1-18.3l20.3-9.3l20.3,27.6l20.3,32.1l24.8,29.8l22.6,11.5
			l20.3-2.3h22.6l22.6,4.5l20.3,9.3l15.8,9.3l6.8,6.8l20.3,9.3l22.6,13.8l4.5,2.3l18.1,16l18.1,16l2.3,4.5l22.6,22.8l11.3,4.5l9,4.5
			l22.6,2.3l22.6-2.3h20.3l22.6-2.3l20.3,6.8l22.6-6.8l22.6-2.3l20.3,2.3l22.6,4.5l22.6,13.8l15.8,11.5l4.5,4.5l22.6,4.5l20.3-2.3
			l22.6,2.3l22.6,4.5l20.3-4.5l22.6,11.5l20.3,11.5l22.6,16l22.6,9.3l20.3-11.5l22.6-6.8l22.6,6.8l20.3,6.8l22.6,9.3h20.3h22.6h22.6
			l20.3,2.3l22.6,6.8l20.3,16l22.6,4.5l22.6-2.3l20.3,6.8l22.6,16l20.3,11.5l6.8,4.5l15.8,11.5l22.6,9.3l20.3,2.3l22.6-2.3l22.6,2.3
			l18.1,9.3l2.3,4.5l22.6,25.3l6.8,2.3l13.6,11.5l18.1,20.6l-15.8,32.1l-2.3,4.5l-20.3,22.8l-4.5,4.5l-18.1,20.6l-20.3,4.5
			l-22.6,2.3l-4.5,4.5l-6.8,32.1l-11.3,25.3l-9,6.8l-11.3,6.8l-15.8,25.3l-4.5,32.1l-2.3,32.1l22.6,27.6l4.5,4.5l11.3,32.1
			l-11.3,32.1l-4.5,2.3l-22.6,4.5h-22.6h-20.3l-22.6-6.8l-11.3,32.1l11.3,18.3l11.3,13.8l11.3,16l13.6,16l6.8,6.8l18.1,25.3
			l-13.6,32.1l-4.5,13.8l-4.5,18.3l-2.3,32.1l-2.3,32.1l-11.3,18.3l-6.8,13.8l-9,29.8l-6.8,29.8l-20.3,34.3l15.8,32.1l4.5,13.8
			l4.5,18.3l-4.5,20.6l-4.5,11.5l-15.8,13.8l-22.6,11.5l-6.8,6.8l-15.8,16l-9,16l-11.3,32.1l0,0"/>
		<path class="st0" d="M750.3-1090.7l13.6,11.5l4.5,32.1v32.1l2.3,6.8l22.6,13.8l11.3,11.5l-6.8,32.1l-4.5,32.1l22.6-22.8l9-9.3
			l11.3-11.5l22.6,11.5l-4.5,32.1l4.5,25.3v6.8v6.8l-2.3,25.3l-9,32.1l-2.3,32.1l-2.3,32.1l-6.8,13.8l-4.5,18.3l4.5,16l13.6-16
			l9-6.8l9-25.3l13.6-20.6l2.3-11.5l13.6-32.1l4.5-9.3l15.8-22.8l6.8-6.8l20.3-16l22.6-2.3l22.6-2.3l9-4.5l11.3-6.8l22.6-6.8
			l20.3-6.8l22.6-2.3l22.6-2.3l20.3-2.3l22.6,11.5l6.8,16l11.3,32.1l2.3,9.3l22.6-6.8l22.6-29.8l2.3-4.5l18.1-25.3l11.3-6.8
			l11.3-6.8l22.6-22.8l20.3-20.6l11.3-13.8l-11.3-9.3l-15.8-22.8l-4.5-6.8L1254-1046l-4.5-6.8l-13.6-25.3l-6.8-29.8l20.3-20.6
			l22.6,2.3l20.3,2.3l20.3-16l22.6-18.3l22.6-2.3l18.1,20.6l4.5,11.5l2.3,20.6l-2.3,11.5l-13.6,18.3l-9,13.8l-4.5,18.3l4.5,9.3
			l13.6,22.8l-13.6,22.8l-9,9.3l-13.6,27.6l-2.3,4.5l2.3,4.5l22.6,9.3l22.6,13.8l20.3,4.5h22.6l20.3,18.3l15.8,13.8l6.8,4.5h22.6
			l13.6-4.5l6.8-2.3h22.6l22.6-13.8l20.3-11.5l22.6,2.3l20.3,13.8l11.3,11.5l11.3,20.6l11.3-20.6l11.3-27.6l2.3-4.5l18.1-13.8
			l22.6-2.3l20.3-9.3l15.8-6.8l6.8-4.5l22.6,4.5l20.3,2.3l6.8-2.3l15.8-4.5l20.3-9.3l22.6-6.8l22.6,11.5h20.3l22.6-6.8l22.6,2.3
			l20.3,6.8l11.3,6.8l11.3,11.5l20.3,4.5l22.6,9.3l6.8,6.8l11.3,32.1l4.5,6.8l20.3,13.8l22.6-11.5l18.1-9.3h6.8l18.1,9.3l22.6,20.6
			l6.8,2.3l13.6,2.3l15.8-2.3h6.8h11.3l11.3,2.3l20.3,9.3l22.6,4.5l20.3,2.3l22.6,4.5l22.6-4.5l20.3,9.3l4.5,4.5l18.1,18.3
			l20.3,13.8l22.6-4.5l22.6-22.8l2.3-4.5l18.1-11.5h22.6l20.3-6.8l22.6-6.8l22.6-6.8h20.3l22.6,9.3l22.6,16l20.3,6.8l22.6,4.5
			l15.8-4.5h9l18.1,9.3l22.6,18.3l6.8,4.5l13.6,11.5l22.6,20.6l20.3,9.3l22.6,11.5l22.6,2.3l20.3-9.3l22.6-11.5l6.8-2.3l15.8-6.8
			l20.3-6.8l22.6-4.5l20.3-4.5l22.6-2.3l22.6,2.3l20.3,9.3l22.6,13.8l20.3,29.8l15.8,2.3l6.8,2.3h22.6l20.3,11.5l22.6,13.8l4.5,4.5
			l9,32.1l-13.6,32.1l-22.6,9.3h-20.3l-22.6,2.3l-11.3,20.6l-6.8,32.1l-4.5,4.5l-15.8,27.6l-4.5,16l-4.5,16l-6.8,32.1l-11.3,27.6
			l-2.3,4.5l-18.1,25.3l-9,6.8l-6.8,32.1l-6.8,4.5l-22.6,13.8l-6.8,13.8l6.8,20.6l4.5,11.5l18.1,11.5l22.6,9.3l9,11.5l11.3,16
			l22.6,11.5l2.3,4.5l9,32.1l4.5,32.1v32.1l-4.5,32.1l-11.3,25.3l-2.3,6.8l-15.8,32.1l-4.5,11.5l-4.5,18.3L3008.9,11l-22.6,18.3
			l-22.6,11.5l-20.3,27.6l-6.8,6.8l6.8,16l6.8,16l-6.8,20.6l-22.6,11.5l-20.3,2.3l-22.6-2.3l-22.6,25.3l-4.5,6.8l-6.8,32.1
			l-6.8,32.1"/>
		<path class="st0" d="M985.2-1173.2l4.5,9.3v22.8l6.8,32.1l-6.8,9.3l-22.6,20.6l-22.6,18.3l-13.6,13.8l-6.8,9.3l-20.3,22.8
			l-22.6,22.8l-18.1,9.3l-4.5,32.1l-4.5-32.1v-32.1l-2.3-32.1l6.8-22.8l2.3-9.3l9-29.8l11.3-9.3l20.3-16l6.8-6.8l15.8-16l20.3-16
			h4.5"/>
		<path class="st0" d="M750.3-513.7l9-20.6l11.3-32.1l22.6-2.3l6.8,2.3l15.8,2.3l20.3,2.3l18.1-4.5l4.5-6.8l4.5-25.3l2.3-32.1
			l15.8-20.6l11.3-11.5l9-4.5l22.6-16l6.8-11.5l2.3-32.1l-2.3-32.1l13.6-22.8l6.8-9.3l15.8-13.8l22.6-4.5l20.3,4.5h22.6l20.3-11.5
			l22.6-4.5h22.6l20.3,27.6l9,34.3v32.1l2.3,32.1l11.3,22.8l20.3-2.3l22.6-6.8l22.6,13.8l4.5,4.5l15.8,6.8l22.6,16l13.6,9.3l9,4.5
			l4.5-4.5l4.5-32.1l-6.8-32.1l-2.3-9.3l-11.3-22.8l-11.3-27.6l-2.3-4.5l-2.3-32.1l4.5-11.5l9-20.6l13.6-22.8l13.6-9.3l6.8-2.3
			l22.6,2.3l20.3,2.3l22.6,9.3l22.6,16l4.5,4.5l15.8,16l20.3,16l22.6-9.3l22.6-11.5l22.6-2.3h20.3l22.6,2.3l22.6,11.5l4.5,9.3
			l11.3,32.1v32.1l2.3,32.1l2.3,4.5l2.3-4.5l20.3-16l20.3-16l22.6-13.8l20.3-18.3l22.6-25.3l13.6-6.8l9-6.8l13.6,6.8l6.8,4.5
			l22.6,16l22.6,11.5l20.3-6.8l22.6-18.3l20.3-6.8l22.6-9.3l22.6-2.3h20.3l22.6,6.8l6.8,4.5l15.8,11.5l20.3,18.3l6.8,2.3l15.8,11.5
			l11.3-11.5l9-6.8l22.6-2.3l22.6,2.3l20.3,6.8l22.6,6.8l20.3,20.6l6.8,4.5l15.8,13.8l22.6,2.3l20.3-9.3l9-6.8l13.6-11.5l22.6-9.3
			l20.3-4.5l22.6,4.5l20.3,18.3l22.6,32.1l22.6-4.5l20.3-2.3l22.6,2.3l20.3-2.3l22.6-2.3l22.6-2.3l20.3-9.3l22.6-6.8l6.8-2.3
			l13.6-6.8l22.6-6.8l22.6-6.8l20.3,6.8l22.6,9.3l6.8,4.5l15.8,18.3l20.3,13.8l22.6,11.5l20.3,16l11.3,4.5l11.3,4.5l22.6,2.3
			l20.3,6.8l22.6,2.3l20.3-6.8l22.6-4.5l11.3-4.5l11.3-2.3l20.3-4.5l22.6-9.3l22.6-11.5l18.1-4.5l24.8-2.3l9,2.3l11.3,4.5l13.6,27.6
			v32.1l9,32.1l4.5,32.1l-4.5,11.5l-11.3,20.6l-11.3,13.8l-20.3,9.3l-11.3,9.3l-11.3,6.8l-20.3,25.3l-20.3,32.1l-2.3,4.5l-20.3,27.6
			l-22.6,18.3l-22.6,13.8l-22.6,13.8l-20.3,16l-11.3,2.3l-4.5,32.1l15.8,9.3l20.3,9.3l22.6,11.5l20.3,34.3l22.6,18.3l22.6,6.8
			l6.8,6.8l15.8,13.8l20.3,11.5l18.1,6.8l4.5,9.3l2.3,22.8l-2.3,32.1l-22.6,27.6l-2.3,4.5l-9,32.1l-9,4.5l-13.6-4.5l-9-4.5
			l-22.6-2.3l-2.3,6.8v29.8L2837.2,9l-2.3,4.5l-22.6,9.3l-22.6,6.8l-20.3,4.5l-22.6,4.5l-4.5,2.3l-15.8,32.1l20.3,29.8l13.6,34.3
			l4.5,32.1l-9,32.1l-9,25.3l-4.5,6.8"/>
		<path class="st0" d="M750.3-829.6l15.8,6.8l4.5,25.3l2.3,6.8l-11.3,32.1l-9,32.1l2.3,32.1l-4.5,9.3"/>
		<path class="st0" d="M750.3-419.9l15.8-18.3l4.5-9.3l22.6-11.5l15.8,20.6l6.8,6.8l20.3,18.3l20.3-25.3l24.8-29.8l20.3-20.6
			l22.6-13.8l11.3-32.1l9-32.1l22.6-29.1l4.5-2.3l18.1-13.8l11.3-18.3l9-18.3l9-13.8l13.6-16l20.3-2.3l18.1,18.3l4.5,13.8l2.3,18.3
			l11.3,32.1l9,11.5l20.3,4.5l22.6-6.8l20.3-6.8l22.6-2.3l22.6,11.5l20.3,18.3l6.8,34.3l2.3,32.1l13.6,25.3l22.6-9.3l20.3-16
			l22.6-20.6l6.8-11.5l13.6-32.1l13.6-32.1l-2.3-32.1l-11.3-29.8l-4.5-34.3l-2.3-32.1l6.8-20.6l22.6-4.5l22.6,13.8l6.8,11.5
			l13.6,13.8l22.6,11.5l20.3-4.5l22.6-6.8h22.6l11.3,18.3l4.5,32.1l-4.5,32.1l9,25.3l4.5,6.8l18.1,9.3l22.6,11.5l20.3-6.8l22.6-9.3
			l20.3,9.3l22.6,4.5l9-18.3l6.8-32.1l6.8-9.3l20.3-18.3l6.8-4.5l15.8-9.3h20.3l11.3,9.3l11.3,9.3l18.1,22.8l4.5,4.5l20.3,16
			l20.3-20.6l2.3-4.5l11.3-27.6l9-16l22.6-16l22.6-4.5l20.3,2.3l6.8,2.3l15.8,18.3l6.8,13.8l4.5,32.1l11.3,9.3l20.3-2.3l22.6-4.5
			h20.3l22.6,2.3l22.6-4.5l20.3,2.3l22.6,4.5l20.3,6.8l22.6,6.8l22.6,4.5l20.3-11.5l22.6-13.8l22.6-2.3l9,2.3l11.3,4.5l22.6,6.8
			l20.3,13.8l11.3,6.8l11.3,9.3l22.6,4.5l18.1-13.8l24.8-18.3l20.3-9.3l13.6-4.5l9-4.5l22.6-6.8l20.3-4.5l22.6-4.5h20.3l22.6,13.8
			l6.8,6.8l13.6,32.1l2.3,4.5l20.3,4.5l22.6,2.3l22.6,11.5l20.3,6.8l22.6-4.5l20.3-6.8h22.6l22.6,6.8l11.3,6.8l9,6.8l22.6,11.5
			l20.3,11.5l9,34.3v32.1l-9,13.8l-9,18.3l-11.3,11.5l-22.6,9.3l-20.3-4.5l-22.6-9.3l-22.6-2.3l-18.1,27.6l-2.3,4.5l-22.6,16
			l-9,11.5l-6.8,32.1l-2.3,32.1l18.1,25.3l4.5,6.8l15.8,32.1l2.3,4.5l20.3,22.8l4.5,4.5l4.5,32.1l-9,20.6l-2.3,11.5l-18.1,27.6
			l-9,4.5l-13.6,18.3l-4.5,13.8l-2.3,32.1l-13.6,18.3l-11.3,11.5l-11.3,9.3l-15.8,22.8l-6.8,18.3l-4.5,13.8l-9,32.1l-6.8,11.5
			l-20.3,20.6l-2.3,4.5l-22.6,25.3l-4.5,2.3l-15.8,6.8l-22.6,11.5l-20.3,2.3l-15.8,11.5l-6.8,2.3l-22.6,9.3l-20.3,2.3l-22.6,13.8
			l-6.8,4.5l-13.6,4.5l-15.8-4.5l-6.8-2.3l-22.6-4.5l-6.8,6.8l-13.6,11.5l-22.6,4.5l-20.3-16l-18.1-32.1l-4.5-9.3l-11.3-22.8
			l-11.3-18.3l-20.3,11.5l-6.8,6.8l-15.8,22.8l-6.8,9.3l-15.8,18.3l-20.3,4.5l-22.6-13.8l-15.8-9.3l-4.5-2.3h-22.6l-22.6,27.6
			l-4.5,6.8l4.5,27.6l2.3,4.5"/>
		<path class="st0" d="M750.3-78.7l6.8-6.8l11.3-32.1l2.3-13.8l4.5-18.3l9-32.1l2.3-32.1l6.8-25.3l11.3-6.8l11.3-4.5l20.3-27.6
			v-32.1v-6.8l22.6-22.8l13.6-2.3l9-2.3l20.3-25.3l2.3-4.5l11.3-32.1l9-9.3l20.3-20.6l4.5-2.3l18.1-22.8l11.3-9.3l11.3-11.5
			l20.3-18.3l22.6,2.3l20.3,6.8l22.6-2.3l22.6-4.5l15.8-4.5l4.5-2.3l22.6-4.5l13.6,6.8l6.8,6.8l9,25.3l11.3,32.1l2.3,9.3l9,22.8
			l13.6,20.6l6.8,11.5l13.6,11.5l22.6,13.8l22.6-22.8l13.6-34.3l6.8-13.8l11.3-18.3l11.3-11.5l20.3-16l6.8-4.5l15.8-25.3l4.5-6.8
			l13.6-32.1l4.5-9.3l18.1-22.8l24.8-6.8l9,6.8l11.3,9.3l22.6,16l22.6,4.5l9,2.3l11.3,2.3l20.3,29.8l2.3,4.5l22.6,9.3l20.3-4.5
			l18.1-9.3l4.5-2.3l4.5,2.3l15.8,13.8l22.6,13.8l22.6-11.5l18.1-16l20.3-32.1l4.5-11.5l18.1-20.6h9l15.8,6.8l20.3,25.3l22.6,27.6
			h22.6l20.3-22.8l6.8-4.5l15.8-22.8l13.6-9.3l9-4.5l11.3,4.5l9,4.5l22.6,20.6l22.6,2.3l20.3-4.5l22.6-4.5h20.3l22.6-2.3l22.6,2.3
			l20.3-2.3h22.6h20.3l22.6,9.3l11.3,6.8l11.3,6.8h20.3l13.6-6.8l9-4.5l22.6-2.3l15.8,6.8l4.5,2.3l22.6,11.5l20.3,4.5l22.6,4.5
			l22.6,2.3l20.3-2.3l22.6-2.3l20.3-11.5l11.3-9.3l11.3-9.3l18.1,9.3l4.5,4.5l20.3,13.8l22.6,9.3l6.8,4.5l13.6,4.5l22.6,6.8
			l22.6,2.3l20.3,6.8l22.6,9.3l-11.3,34.3l-11.3,16l-9,16l-11.3,20.6l-4.5,11.5l-9,32.1l-9,18.3l-9,13.8l-13.6,32.1l22.6,22.8
			l11.3,9.3l11.3,27.6l2.3,4.5l-22.6,32.1l-24.8,22.8l-6.8,9.3l-13.6,32.1l-22.6,20.6l-6.8,11.5l-13.6,13.8l-13.6,18.3l-6.8,29.8
			l-2.3,6.8l-22.6,22.8l-13.6,2.3l-6.8,2.3l-22.6,2.3h-20.3l-22.6,6.8l-22.6,13.8l-18.1,6.8l-2.3,4.5l-22.6-2.3l-20.3-9.3l-22.6-16
			h-22.6l-20.3,20.6l-4.5,2.3l-18.1,16l-22.6,11.5l-9,4.5l-11.3,9.3l-22.6,2.3h-20.3l-22.6-6.8h-22.6l-20.3,27.6l-22.6,13.8
			l-20.3,11.5l-6.8,6.8l-15.8,13.8l-22.6,9.3l-18.1,9.3l-2.3,6.8l-4.5,25.3l4.5,9.3l15.8,22.8"/>
		<path class="st0" d="M750.3,15.1l9-6.8l11.3-4.5l22.6-4.5h22.6l20.3-6.8l6.8-16l-6.8-20.6l-2.3-9.3v-32.3l2.3-27.6l2.3-4.5v-32.1
			l6.8-32.1l13.6-13.8l22.6-11.5l20.3-2.3l6.8-4.5l4.5-32.1l11.3-32.1l20.3-16l22.6-13.8l20.3-34.3l2.3-32.1l20.3-6.8h22.6l20.3-4.5
			l22.6-4.5h22.6l18.1,16l2.3,4.5l11.3,27.6l11.3,13.8l20.3,18.3l22.6,13.8l22.6,13.8l9,4.5l11.3,2.3l22.6,2.3l22.6,2.3h20.3
			l22.6-6.8l13.6-32.1l2.3-32.1l4.5-18.3l4.5-13.8l6.8-32.1l11.3-13.8l13.6-18.3l9-6.8l20.3-20.6l6.8-4.5l15.8-11.5l20.3,4.5
			l15.8,6.8l6.8,4.5l13.6,27.6l9,13.8l20.3,11.5l22.6-4.5l22.6-6.8l20.3-2.3l22.6,16l4.5,4.5l15.8,6.8h22.6l15.8-6.8l6.8-4.5
			l20.3-18.3l11.3-9.3l11.3-9.3L1726-461l22.6,9.3l11.3,13.8l11.3,11.5l20.3,4.5l22.6-11.5l9-4.5l11.3-9.3L1857-461l22.6-6.8h20.3
			l22.6-2.3h11.3l11.3-2.3l20.3-2.3l22.6-2.3l20.3-2.3l22.6-4.5l22.6-2.3l20.3-2.3l22.6-2.3l20.3,2.3l22.6,13.8l6.8,4.5l15.8,11.5
			l20.3,4.5l22.6-2.3l22.6,2.3l20.3,9.3l20.3,6.8l22.6,4.5h22.6l22.6-2.3l20.3,2.3l22.6,11.5l20.3,16l22.6,18.3l4.5,13.8l-4.5,6.8
			l-22.6,11.5l-20.3,11.5l-22.6,25.3l-2.3,9.3l2.3,32.1l6.8,32.1l-6.8,32.1v32.1l-20.3,32.1l-22.6,22.8l-11.3,9.3l-11.3,4.5
			l-20.3,11.5l-22.6,6.8l-20.3-4.5l-22.6-9.3l-22.6-6.8l-20.3-2.3h-22.6l-22.6,25.3l-2.3,6.8l-18.1,18.3l-22.6-13.8l-20.3,4.5
			l-22.6,18.3l-2.3,4.5l-20.3,20.6l-20.3,9.3l-22.6,9.3l-20.3,11.5l-20.3,11.5l-2.3,9.3l-2.3,22.8L1899.9,55l-20.3,9.3l-22.6,9.3
			l-22.6,25.3l-4.5,6.8l-15.8,27.6l-2.3,4.5l-18.1,32.1l-2.3,4.5l-20.3,27.6l-6.8,32.1"/>
		<path class="st0" d="M750.3,122.8l15.8-18.3l4.5-4.5l22.6-18.3l22.6-6.8l20.3-2.3l22.6,4.5l6.8-4.5l15.8-4.5l20.3-18.3l18.1-9.3
			l4.5-2.3L940,8.5l-11.3-32.1l-4.5-29.8l20.3-20.6l22.6-9.3l4.5-2.3l18.1-22.8l9-9.3l11.3-9.3l22.6-18.3l6.8-4.5l-6.8-27.6
			l-2.3-4.5l2.3-16l2.3-16l18.1-20.6l22.6-2.3l22.6,13.8l15.8,9.3l4.5,2.3l22.6,20.6l13.6,9.3l6.8,4.5l22.6,4.5l22.6,4.5l20.3-2.3
			l22.6-4.5l15.8-6.8l6.8-4.5l20.3-11.5l22.6-2.3l20.3-4.5l22.6-6.8l22.6-25.3l6.8-9.3l13.6-25.3l4.5-6.8l18.1-29.8l20.3-34.3
			l22.6,4.5l22.6,9.3l20.3-11.5l18.1-2.3l4.5-2.3l4.5,2.3l18.1,2.3l20.3,11.5h22.6l20.3-11.5l13.6-2.3l9-2.3l13.6,2.3h9l20.3-9.3
			l22.6-18.3l13.6-4.5l6.8-4.5l9,4.5l13.6,4.5l22.6,16l20.3,2.3l22.6-18.3l4.5-4.5l15.8-11.5l22.6-9.3l22.6-4.5h20.3l22.6,2.3
			l22.6-4.5l9-4.5l11.3-4.5l22.6-6.8l20.3-2.3l22.6-4.5h22.6l20.3,2.3l22.6,6.8l15.8,9.3l4.5,4.5l22.6,13.8l22.6,11.5l20.3,20.6
			l11.3,13.8l-11.3,20.6l-11.3,11.5l-9,9.3l-11.3,22.8l-11.3,11.5l-20.3,20.6l-22.6,13.8l-22.6,9.3l-20.3,4.5l-18.1,4.5l-27.1,16
			l-9,16l-11.3,20.6l-6.8,11.5l-15.8,18.3l-20.3,9.3h-22.6l-4.5,4.5l-18.1,13.8L1888.6-85l-9,6.8L1857-64.4l-4.5,11.5l-2.3,29.8
			l-15.8,25.3l-6.8,6.8l-13.6,9.3l-22.6,11.5l-20.3,9.3l-22.6-6.8l-22.6,9.3l-20.3,18.3l-22.6,11.5l-6.8,2.3l-11.3,32.1l18.1,9.3
			l22.6,18.3l2.3,4.5l2.3,32.1l-4.5,6.8l-20.3,25.3l-2.3,4.5l-15.8,27.6"/>
		<path class="st0" d="M757.1,232.6l13.6-11.5l20.3-20.6l24.8-20.6l13.6-11.5l6.8-2.3l22.6-2.3h22.6l20.3-6.8l22.6-4.5l20.3-4.5
			l22.6-6.8l2.3-4.5l15.8-32.1l4.5-2.3l20.3-13.8l15.8-16l6.8-18.3l2.3-13.8l-2.3-22.8l-2.3-9.3l20.3-32.1l24.8-9.3l22.6-13.8
			l20.3-4.5h22.6l20.3-2.3l22.6-6.8l22.6-13.8l18.1-11.5l24.8-4.5l9,4.5l13.6,2.3l20.3,4.5l22.6-2.3l13.6-4.5l6.8-6.8l22.6-9.3
			l22.6-9.3l9-6.8l11.3-9.3l22.6-18.3l6.8-4.5l13.6-9.3l13.6-22.8l9-25.3l4.5-6.8l18.1-22.8l20.3-6.8l9-2.3l13.6-4.5l22.6-2.3h20.3
			h22.6l20.3-4.5l22.6-13.8l22.6-6.8l20.3-2.3l22.6-6.8l20.3,2.3l22.6,6.8l22.6,18.3l20.3,13.8l-13.6,32.1l-6.8,22.8l-4.5,9.3
			l-18.1,18.3l-11.3,13.8l-11.3,6.8l-20.3,22.8l-22.6,32.1L1665-53.1l-24.8,18.3l-9,11.5l-13.6,13.8l-20.3,18.3l-22.6,29.8
			l-20.3,22.8l-11.3,11.5l-11.3,13.8l-22.6,18.3l-20.3,16l-22.6,13.8l-9,2.3l-13.6,4.5l-20.3,6.8l-22.6,4.5l-20.3,2.3l-22.6-2.3
			l-18.1-16l-24.8-9.3l-22.6-6.8l-20.3-11.5l-6.8-4.5l-15.8-9.3h-22.6l-18.1,9.3l-2.3,4.5l-22.6,27.6l2.3,32.1l-2.3,4.5l-13.6,27.6
			l-6.8,32.1"/>
	</g>
</g>
</svg>
